<?xml version="1.0" standalone="no"?>
<!DOCTYPE svg PUBLIC "-//W3C//DTD SVG 20010904//EN"
 "http://www.w3.org/TR/2001/REC-SVG-20010904/DTD/svg10.dtd">
<svg version="1.0" xmlns="http://www.w3.org/2000/svg"
 width="1820.000000pt" height="1213.000000pt" viewBox="0 0 1820.000000 1213.000000"
 preserveAspectRatio="xMidYMid meet">
<metadata>
Created by potrace 1.16, written by Peter Selinger 2001-2019
</metadata>
<g transform="translate(0.000000,1213.000000) scale(0.100000,-0.100000)"
fill="#000000" stroke="none">
<path d="M0 11705 c0 -354 2 -425 14 -425 15 0 33 -18 38 -40 3 -13 -2 -16
-37 -19 -14 -1 -15 -52 -13 -453 2 -349 6 -452 15 -451 7 2 10 -4 7 -12 -8
-19 70 -95 141 -136 79 -46 82 -61 13 -53 -33 4 -77 19 -115 40 l-63 35 0
-291 c0 -229 3 -291 13 -287 6 2 11 9 10 15 -2 8 8 9 30 5 32 -7 48 -7 97 -3
14 1 67 -1 118 -4 68 -5 92 -4 92 5 0 7 2 10 5 7 3 -2 -1 -27 -9 -54 -8 -27
-17 -76 -21 -109 -3 -33 -11 -77 -16 -98 -6 -21 -12 -54 -14 -73 -5 -33 -4
-34 24 -32 16 1 29 5 29 8 -2 18 4 26 21 26 11 0 17 -4 15 -8 -3 -4 1 -8 9 -8
10 0 13 -7 10 -20 -4 -16 -2 -19 13 -13 10 4 13 8 7 10 -7 3 -10 10 -7 17 6
16 43 14 54 -4 15 -24 59 -1 101 53 64 80 67 93 35 119 -15 13 -41 35 -58 51
-16 15 -34 27 -39 27 -6 0 -7 5 -4 10 3 6 1 10 -5 10 -6 0 -8 5 -4 11 5 8 10
6 16 -5 5 -9 14 -16 19 -16 6 0 7 5 4 10 -3 6 3 10 14 10 12 0 21 -4 21 -9 0
-4 21 -16 48 -26 26 -10 53 -22 59 -27 12 -10 30 7 186 170 45 47 58 72 38 72
-16 0 -19 49 -4 70 9 13 10 20 3 20 -6 0 -22 12 -36 27 -20 22 -35 28 -70 28
-25 0 -44 5 -44 11 0 9 -103 39 -170 50 -8 2 -16 7 -18 13 -2 5 -10 7 -19 4
-11 -4 -14 -2 -9 5 5 8 2 10 -8 6 -9 -3 -16 -1 -16 5 0 6 -7 8 -17 4 -12 -5
-14 -3 -8 7 6 10 4 12 -7 7 -11 -4 -15 0 -13 11 1 9 -4 25 -13 35 -21 24 -11
22 109 -18 57 -20 151 -47 209 -62 58 -14 107 -27 109 -29 2 -2 -1 -10 -8 -18
-9 -11 -8 -15 4 -20 9 -3 13 -2 10 4 -3 6 -2 10 4 10 17 0 24 -22 10 -30 -21
-13 8 -41 37 -36 13 3 24 0 24 -6 0 -6 17 -9 41 -6 35 3 38 2 23 -9 -10 -7
-14 -13 -8 -13 5 0 3 -4 -5 -9 -10 -7 -19 -4 -28 7 -13 15 -13 14 -4 -5 9 -18
8 -23 -10 -28 -15 -5 -17 -10 -10 -19 6 -7 7 -17 3 -21 -4 -5 -1 -5 6 -1 7 4
10 12 7 17 -4 5 -1 9 5 9 7 0 19 9 28 20 10 11 27 22 40 25 12 2 26 6 31 10
11 6 26 -13 17 -22 -3 -3 -16 -6 -28 -7 -15 -1 -23 -7 -22 -19 1 -9 -2 -14 -7
-11 -11 7 -51 -21 -42 -29 3 -4 2 -7 -4 -7 -6 0 -28 -21 -49 -47 -21 -26 -32
-43 -24 -39 8 5 -4 -11 -28 -34 -23 -23 -39 -47 -35 -53 4 -6 1 -8 -9 -5 -9 4
-31 -14 -63 -53 -27 -32 -52 -59 -57 -59 -4 0 -8 -8 -9 -17 0 -11 -3 -13 -6
-5 -2 6 -10 12 -16 12 -5 0 -7 -3 -4 -7 4 -3 2 -12 -5 -20 -9 -11 -7 -12 7 -7
13 5 16 4 11 -4 -4 -7 -15 -12 -26 -12 -10 0 -20 -7 -24 -15 -3 -8 -1 -15 4
-15 6 0 10 5 10 12 0 6 2 9 5 6 9 -9 -7 -39 -18 -35 -9 3 -57 -38 -57 -49 0
-9 57 22 72 39 10 10 24 20 32 21 21 3 46 26 46 43 0 8 -5 11 -11 7 -8 -4 -7
0 1 15 6 12 15 19 21 16 5 -4 12 2 16 12 4 10 16 27 26 38 12 12 5 -8 -17 -52
-32 -62 -45 -77 -94 -107 -118 -73 -192 -128 -186 -138 4 -7 9 -6 14 2 5 8 10
9 14 2 10 -16 -13 -25 -29 -12 -10 8 -19 8 -33 1 -24 -13 -48 -41 -34 -41 6 0
12 4 14 9 4 13 32 18 33 6 0 -5 4 -17 9 -25 6 -9 -1 -6 -14 5 -20 17 -23 18
-17 3 7 -20 -21 -26 -39 -8 -14 14 -44 2 -44 -16 0 -8 -5 -14 -11 -14 -6 0 -8
-7 -5 -16 6 -14 4 -15 -9 -4 -14 12 -15 10 -9 -15 6 -24 4 -27 -9 -22 -13 5
-16 1 -13 -16 1 -12 7 -22 13 -22 22 0 83 -60 83 -82 0 -21 10 -28 33 -24 5 1
6 -2 4 -6 -6 -9 17 -45 27 -44 20 3 26 -1 26 -14 0 -8 7 -15 15 -15 8 0 15 5
15 11 0 5 5 7 10 4 8 -5 8 -11 0 -20 -9 -11 -7 -12 9 -8 15 4 21 1 21 -11 0
-9 -5 -16 -12 -16 -6 0 -8 -3 -5 -6 4 -4 14 -1 22 6 9 7 15 9 14 4 -4 -22 3
-32 26 -38 14 -4 23 -11 20 -16 -3 -6 1 -7 10 -4 8 4 15 11 14 18 -4 34 3 38
20 10 25 -40 21 -108 -8 -165 -16 -30 -21 -53 -18 -76 3 -18 2 -35 -3 -38 -17
-10 -30 24 -33 86 -4 88 -44 167 -124 247 -34 34 -65 63 -68 62 -3 0 -16 2
-30 6 -34 9 -72 -9 -123 -57 -46 -44 -49 -63 -8 -73 13 -3 54 -20 90 -36 95
-44 125 -80 66 -80 -23 0 -28 3 -23 17 5 13 2 15 -11 10 -11 -4 -15 -3 -10 4
4 7 0 9 -14 5 -11 -4 -23 -2 -26 3 -4 5 -23 10 -44 11 -141 4 -135 3 -155 38
-15 25 -20 51 -19 96 1 62 34 190 52 201 10 6 15 -10 10 -30 -1 -5 -3 -17 -4
-25 -1 -8 -8 -28 -14 -44 -7 -16 -10 -37 -7 -46 3 -10 1 -21 -5 -25 -16 -10
-12 -23 13 -36 12 -6 19 -9 16 -5 -4 4 3 17 15 30 11 12 32 37 45 54 14 17 28
29 33 26 4 -3 10 8 14 23 4 15 11 34 17 41 5 7 7 15 4 18 -9 9 -54 -43 -77
-90 -11 -22 -31 -48 -43 -57 l-23 -17 11 52 c5 28 20 65 31 81 12 17 25 40 28
53 4 12 12 20 17 16 6 -3 13 3 16 15 3 12 10 21 15 21 6 0 8 18 6 40 -2 22 0
40 5 40 4 0 5 5 2 10 -3 6 -3 10 2 10 4 1 24 14 43 30 l34 30 -33 0 c-27 0
-32 -3 -27 -17 5 -16 4 -16 -8 1 -8 10 -19 15 -25 11 -6 -3 -11 -1 -11 4 0 7
-20 10 -47 9 l-48 -1 42 -4 c42 -4 64 -26 44 -46 -5 -5 -7 -15 -5 -21 3 -7 -4
-12 -16 -12 -11 0 -20 4 -20 8 0 4 -7 8 -15 8 -8 0 -15 5 -15 10 0 6 6 9 13 8
6 -2 11 3 9 11 -2 8 3 11 13 8 8 -4 15 -2 15 4 0 14 -56 4 -130 -21 -47 -16
-55 -22 -52 -42 2 -21 2 -21 -9 -5 -16 27 -2 160 17 153 8 -3 14 -1 14 5 0 5
11 7 25 3 16 -4 25 -2 25 6 0 6 5 8 11 4 6 -3 35 -8 64 -10 l53 -4 7 40 c4 22
6 41 4 42 -1 2 4 14 11 28 7 13 15 42 18 62 4 35 2 38 -22 38 -14 0 -26 -5
-26 -10 0 -6 -3 -9 -8 -8 -4 1 -22 -2 -39 -6 -23 -5 -33 -13 -33 -27 0 -10 -4
-19 -10 -19 -5 0 -10 4 -10 9 0 18 -73 -11 -103 -41 -10 -10 -22 -16 -27 -13
-17 11 -37 -40 -38 -100 -2 -53 -1 -58 12 -42 12 16 14 16 20 1 8 -20 8 -24
-1 -23 -5 1 -14 1 -20 0 -10 -1 -13 -938 -13 -4606 l0 -4605 9100 0 9100 0 0
5009 c0 3968 -3 5010 -13 5014 -9 3 -9 7 0 19 9 11 13 97 13 336 0 275 -2 322
-15 322 -15 0 -35 30 -35 53 0 8 11 31 25 51 l25 37 0 644 0 645 -715 0 -715
0 6 -27 c3 -16 9 -41 13 -58 9 -37 6 -267 -5 -303 -4 -15 -8 -31 -9 -37 -29
-125 -104 -278 -179 -363 -143 -164 -267 -257 -481 -360 -27 -14 -87 -48 -133
-76 -46 -28 -91 -55 -100 -61 -9 -5 -78 -50 -152 -99 -74 -50 -178 -112 -230
-138 -52 -27 -108 -57 -125 -67 -16 -10 -48 -24 -70 -31 -22 -7 -47 -18 -55
-25 -8 -6 -44 -22 -80 -35 -36 -12 -85 -32 -110 -43 -25 -11 -52 -22 -61 -24
-9 -1 -50 -16 -92 -33 -41 -16 -82 -30 -91 -30 -8 0 -17 -4 -20 -9 -3 -5 -18
-12 -33 -15 -34 -9 -181 -64 -208 -79 -26 -15 -47 -18 -39 -6 3 5 -2 12 -10
15 -9 3 -14 10 -11 14 3 5 -5 6 -17 4 -13 -2 -17 -2 -10 2 17 8 5 24 -18 24
-10 0 -22 5 -26 12 -5 7 -2 8 7 3 11 -6 12 -5 2 6 -21 21 -15 41 20 70 19 18
28 31 22 36 -14 11 -15 63 -1 65 6 0 16 2 21 2 6 1 20 7 31 14 12 6 31 10 42
7 14 -2 19 1 16 9 -5 13 113 83 123 72 3 -3 15 1 27 9 11 8 28 15 37 15 9 0
28 9 43 21 14 11 30 17 36 14 5 -3 10 -1 10 4 0 6 10 10 23 10 25 -1 149 32
157 42 3 4 24 10 48 14 23 4 42 11 42 16 0 5 9 9 20 9 11 0 37 7 58 16 20 10
52 18 70 19 19 1 37 7 42 14 4 7 9 12 11 10 2 -1 23 8 47 20 23 12 47 19 52
16 6 -3 10 -1 10 4 0 6 12 11 27 11 15 0 36 8 47 18 12 10 40 24 63 31 23 6
49 18 57 26 8 8 23 16 33 18 28 5 103 40 103 49 0 4 7 4 17 1 11 -4 14 -3 9 5
-4 7 -1 12 9 12 8 0 23 4 33 9 9 4 33 15 52 23 213 94 356 170 352 187 -1 7 2
10 8 6 5 -3 15 -1 22 4 7 6 29 24 49 40 20 17 39 28 43 26 3 -3 4 -3 2 0 -2 3
16 25 40 50 24 24 44 51 44 59 0 8 14 26 30 39 17 14 30 29 30 34 0 5 11 17
25 27 13 10 23 22 20 26 -5 9 19 62 47 103 11 15 15 27 8 27 -7 0 -4 12 7 30
9 17 21 30 25 30 5 0 6 14 3 31 -6 35 2 72 15 64 9 -6 6 29 -5 60 -5 16 -5 17
4 5 11 -16 12 -14 15 50 1 14 5 31 9 38 5 6 4 12 -1 12 -9 0 -10 68 -2 95 2 6
0 18 -5 29 -5 12 -3 21 6 27 8 5 -54 9 -156 9 l-170 0 -12 -27 c-13 -31 -34
-85 -35 -93 -1 -3 -7 -9 -13 -15 -7 -5 -25 -32 -39 -58 -14 -26 -31 -53 -36
-60 -6 -7 -31 -39 -58 -72 -114 -144 -222 -253 -453 -455 -120 -105 -242 -193
-324 -235 -38 -19 -87 -50 -108 -70 -21 -19 -43 -35 -49 -35 -7 0 -3 7 8 15
10 8 14 15 8 15 -6 0 -17 -6 -23 -13 -6 -8 -30 -19 -53 -26 -24 -7 -83 -26
-131 -42 -82 -28 -141 -43 -210 -54 -15 -2 -32 -7 -37 -10 -5 -3 -26 -8 -47
-10 -21 -3 -74 -12 -118 -20 -44 -8 -147 -19 -230 -26 -82 -6 -153 -16 -156
-21 -10 -15 -20 7 -13 26 3 9 10 14 14 11 5 -3 15 1 23 9 11 11 17 12 26 3 8
-8 11 -7 11 6 0 14 8 16 40 14 28 -2 46 2 59 14 10 10 21 16 23 14 2 -3 45 2
94 11 49 9 98 17 109 19 37 5 50 10 65 25 8 8 20 15 25 15 31 1 85 17 85 26 0
6 4 7 10 4 5 -3 7 0 5 7 -4 9 10 18 42 28 27 7 60 21 76 30 l27 17 -42 29
c-41 27 -47 30 -67 33 -5 0 -31 23 -58 51 -26 27 -56 50 -65 50 -27 0 -30 18
-7 41 13 13 17 24 11 28 -7 4 -6 12 2 23 8 11 17 14 26 8 12 -7 11 -11 -1 -26
-8 -11 -9 -15 -2 -10 7 4 18 16 24 28 8 15 8 19 0 14 -6 -4 -14 0 -17 9 -8 19
51 79 67 70 5 -4 9 1 9 10 0 11 5 15 15 11 11 -4 17 3 22 24 3 16 9 27 14 24
5 -3 9 3 9 13 0 19 33 24 58 9 7 -4 12 -2 12 3 0 6 6 11 14 11 20 0 28 30 14
49 -12 14 -11 15 5 2 9 -8 20 -11 24 -8 3 4 12 2 19 -4 10 -8 12 -2 10 25 -3
38 2 44 22 24 9 -9 12 -7 12 10 0 16 4 20 16 15 10 -4 20 0 25 9 6 11 20 15
44 13 20 -2 35 1 35 7 0 6 6 6 15 -2 8 -7 13 -16 10 -20 -3 -4 1 -13 8 -19 11
-8 14 -4 14 19 0 17 -4 30 -9 30 -4 0 -8 11 -8 25 0 14 5 25 11 25 6 0 9 -6 6
-14 -3 -8 3 -22 13 -31 17 -16 20 -16 25 -2 9 22 48 14 106 -22 67 -41 55 -25
-18 24 -32 22 -81 57 -109 77 -28 21 -55 38 -61 38 -6 0 -17 7 -24 16 -7 9
-23 20 -36 25 -13 5 -23 13 -23 19 0 6 18 -1 40 -15 22 -14 44 -25 50 -25 5 0
10 -4 10 -9 0 -14 94 -71 118 -71 11 0 23 -6 25 -12 4 -9 6 -9 6 2 1 10 6 8
16 -7 10 -14 23 -20 36 -18 14 3 19 0 16 -9 -3 -8 -1 -18 5 -24 13 -13 38 9
38 33 0 14 4 13 21 -6 11 -13 18 -18 14 -11 -3 6 -1 12 4 12 6 0 11 -4 11 -10
0 -5 7 -10 15 -10 8 0 19 -9 25 -19 15 -29 50 -23 51 9 1 17 3 19 6 7 2 -9 9
-15 14 -12 5 4 9 -3 9 -14 0 -11 4 -22 8 -25 4 -2 6 12 4 32 -4 33 -3 35 12
23 9 -7 16 -19 16 -25 0 -6 -5 -4 -11 4 -9 12 -10 12 -5 -3 3 -10 6 -21 6 -23
0 -3 9 0 20 6 15 8 10 -6 -22 -59 -24 -38 -45 -68 -48 -66 -3 2 -13 -13 -23
-32 -17 -34 -17 -34 3 -20 11 8 36 28 54 45 18 16 64 52 102 78 38 26 87 63
110 81 23 18 45 33 51 33 5 0 19 13 31 30 12 16 36 37 52 45 21 11 30 23 30
40 0 17 10 31 28 43 15 9 28 24 30 32 2 8 11 21 20 28 9 7 16 15 15 17 -7 13
-1 25 12 25 8 0 15 9 15 20 0 11 9 34 20 52 11 18 20 43 20 55 l0 22 -308 1
c-337 0 -306 5 -386 -61 -52 -43 -196 -120 -228 -122 -26 -2 -34 4 -51 36
l-20 39 20 20 21 20 -22 34 c-18 29 -26 33 -64 34 -45 0 -89 -17 -111 -44 -18
-21 -49 -20 -75 2 -21 17 -21 17 -3 -5 19 -21 18 -21 -28 -42 -26 -12 -51 -18
-56 -15 -5 3 -18 0 -29 -6 -13 -7 -20 -7 -20 0 0 5 -7 10 -15 10 -8 0 -15 -7
-15 -15 0 -16 -26 -21 -32 -5 -2 5 -27 10 -56 11 -29 1 -55 6 -58 11 -3 4 -14
8 -25 8 -11 0 -18 4 -15 9 3 5 -9 10 -27 10 -67 3 -82 8 -94 32 -7 13 -17 24
-22 24 -5 0 -13 3 -17 8 -8 8 -74 10 -74 2 0 -14 59 -133 69 -139 6 -4 11 -17
11 -29 0 -13 13 -47 28 -77 16 -30 29 -57 29 -60 0 -18 16 -50 24 -50 6 0 8
-4 4 -9 -3 -5 0 -13 6 -16 5 -4 8 -13 5 -20 -3 -8 4 -25 15 -39 10 -13 22 -39
25 -58 4 -18 10 -38 15 -43 14 -19 51 -219 46 -251 -3 -18 -1 -37 4 -43 5 -6
6 -9 3 -6 -4 2 -14 -10 -23 -28 -10 -20 -33 -41 -60 -54 -24 -13 -58 -33 -74
-45 -57 -44 -107 -70 -107 -56 0 9 -3 9 -10 -2 -5 -8 -10 -10 -10 -5 0 6 -6
-1 -13 -15 -7 -14 -21 -24 -30 -24 -9 1 -17 -3 -17 -9 0 -6 -3 -7 -7 -3 -10 9
-14 46 -5 44 4 -1 23 6 42 14 25 12 29 17 15 17 -28 1 -70 -22 -71 -39 -1 -8
-2 -22 -3 -30 -1 -13 -3 -13 -10 -1 -5 8 -6 24 -1 36 8 21 6 22 -27 18 -32 -3
-35 -2 -23 12 11 13 10 14 -4 9 -14 -5 -17 -11 -15 -30 0 -3 -12 -15 -26 -26
-22 -17 -28 -19 -36 -7 -7 11 -9 11 -9 -3 0 -9 -5 -20 -11 -24 -8 -4 -9 1 -5
17 6 21 5 22 -6 8 -7 -9 -16 -16 -20 -15 -22 3 -14 -13 12 -24 28 -12 37 -38
11 -33 -6 2 -11 -2 -11 -8 0 -5 -5 -7 -11 -3 -8 4 -9 -1 -4 -17 16 -54 45
-110 54 -105 5 3 11 -1 15 -9 3 -8 2 -15 -3 -15 -13 0 3 -84 21 -106 5 -7 8
-16 7 -20 -2 -8 21 -95 41 -154 4 -14 20 -63 34 -110 88 -294 126 -401 156
-442 11 -15 20 -33 21 -40 0 -7 4 -4 9 7 7 16 9 14 7 -12 0 -18 6 -40 16 -51
23 -25 21 -31 -5 -26 -18 3 -17 1 5 -8 15 -7 27 -17 27 -23 0 -7 13 -26 30
-43 16 -18 30 -36 30 -42 0 -5 7 -10 15 -10 8 0 22 -11 31 -25 9 -14 20 -22
25 -19 5 3 7 9 5 13 -3 4 5 7 17 6 12 -1 30 2 40 7 21 11 23 32 1 24 -9 -4
-13 -2 -8 5 4 6 0 15 -7 20 -10 6 -8 9 9 9 12 0 22 -6 22 -12 0 -9 4 -8 11 2
9 12 10 11 6 -7 -3 -13 -1 -23 4 -23 5 0 9 7 9 15 0 8 9 15 19 15 33 0 55 12
40 21 -7 4 -21 3 -31 -2 -14 -7 -16 -6 -12 6 4 8 1 15 -5 15 -6 0 -11 -4 -11
-10 0 -5 -7 -10 -15 -10 -9 0 -15 9 -15 25 0 22 3 23 24 15 13 -5 27 -6 30 -2
7 7 26 11 74 17 33 4 33 4 17 -21 -15 -23 -14 -24 5 -21 22 4 40 17 21 17 -9
0 -9 5 -1 21 8 14 17 18 28 14 33 -13 73 -15 66 -3 -5 8 -1 9 10 5 10 -4 22
-7 28 -7 6 0 4 -8 -4 -17 -8 -10 -18 -25 -22 -33 -26 -58 -95 -142 -108 -134
-6 4 -8 2 -5 -3 4 -6 -2 -18 -12 -27 -15 -13 -20 -14 -24 -4 -4 9 -6 7 -6 -4
-1 -9 -6 -20 -13 -24 -7 -4 -8 -3 -4 4 5 8 2 10 -8 6 -9 -3 -13 -10 -10 -15 7
-12 -3 -11 -27 1 -15 8 -19 7 -19 -5 0 -8 -9 -15 -20 -15 -11 0 -20 5 -20 11
0 5 -4 8 -9 5 -5 -3 -12 1 -15 10 -3 9 -12 14 -19 11 -7 -3 -24 1 -38 9 -13 7
-18 13 -11 14 7 0 10 4 7 10 -6 10 -40 8 -51 -3 -4 -4 -14 -7 -22 -7 -9 0 -12
3 -8 8 4 4 12 7 17 7 5 0 8 5 7 10 -2 6 -6 9 -10 8 -4 -2 -4 5 -1 14 4 11 8
13 11 5 2 -7 8 -12 13 -12 5 0 4 9 -3 19 -7 11 -14 19 -17 19 -25 -2 -32 4
-26 25 4 15 3 18 -3 8 -7 -9 -12 -10 -16 -2 -4 6 -16 11 -26 11 -10 0 -21 6
-24 13 -4 8 -8 8 -11 1 -3 -6 -19 -8 -37 -6 l-31 5 32 13 c27 11 31 18 26 35
-5 16 -4 19 5 14 9 -5 11 -4 6 3 -9 15 -46 16 -46 1 0 -5 -6 -7 -12 -3 -10 6
-10 5 0 -8 16 -20 -1 -35 -48 -45 -29 -5 -31 -7 -15 -14 19 -7 19 -8 -2 -8
-12 -1 -24 -5 -28 -11 -3 -5 -12 -7 -20 -3 -10 3 -15 -1 -15 -13 0 -16 -2 -17
-10 -4 -7 11 -10 11 -10 2 0 -7 -5 -10 -11 -6 -8 4 -2 12 15 21 14 7 26 22 26
33 0 20 33 36 51 24 8 -5 9 -3 4 6 -5 9 -2 10 14 5 24 -7 27 3 7 30 -13 18
-14 18 -20 -3 -8 -25 -43 -30 -43 -7 0 11 6 13 21 9 18 -6 19 -5 7 10 -17 21
-30 20 -47 -1 -17 -22 -18 -47 -2 -37 7 4 8 3 4 -5 -4 -6 -16 -9 -27 -6 -18 6
-24 -2 -20 -32 1 -7 -3 -13 -9 -13 -5 0 -9 -3 -9 -7 4 -22 -2 -47 -9 -38 -11
15 -56 19 -47 4 6 -8 4 -10 -5 -4 -12 8 -32 11 -92 17 -10 1 -18 6 -18 10 0 4
-10 4 -22 -1 -13 -5 -32 -7 -43 -5 -24 3 -48 -13 -58 -40 -6 -14 -4 -17 9 -12
15 6 15 4 3 -11 -9 -11 -10 -14 -1 -9 7 4 12 1 12 -9 0 -9 4 -14 9 -11 5 3 11
-1 15 -9 8 -21 -53 -53 -65 -34 -11 19 -23 3 -14 -18 5 -10 7 -25 6 -33 -2
-13 -1 -13 8 0 8 12 13 12 36 0 21 -11 23 -15 10 -22 -8 -5 -23 -8 -33 -7 -9
1 -26 0 -37 0 -18 -2 -18 -3 4 -12 13 -5 33 -7 45 -4 21 6 21 6 1 -9 -11 -8
-26 -21 -34 -28 -12 -10 -14 -9 -8 4 4 12 1 16 -13 15 -10 -1 -16 -5 -14 -9 3
-4 -2 -8 -10 -8 -9 0 -16 -4 -16 -10 0 -5 -8 -10 -17 -10 -13 0 -14 -3 -6 -11
9 -9 18 -8 37 5 25 15 26 15 26 -1 -1 -22 -25 -55 -33 -46 -4 3 -7 1 -7 -5 0
-24 20 -20 42 8 33 44 94 110 102 110 3 0 6 -5 6 -11 0 -5 -4 -7 -10 -4 -9 6
-14 -8 -11 -28 1 -5 -3 -6 -8 -3 -5 4 -12 2 -16 -4 -3 -5 -1 -10 4 -10 6 0 11
-5 11 -11 0 -5 -5 -7 -12 -3 -7 4 -8 3 -4 -4 4 -7 2 -12 -5 -12 -7 0 -10 -3
-7 -6 12 -11 60 29 55 46 -2 9 1 17 8 17 7 0 11 -6 8 -13 -4 -10 3 -9 27 2 60
31 40 6 -42 -51 -91 -63 -111 -80 -88 -73 8 3 20 -1 27 -7 13 -13 6 -58 -8
-50 -4 3 -5 13 -2 23 7 18 5 17 -17 -12 -8 -11 -10 -17 -5 -14 15 9 35 -26 25
-42 -9 -15 -30 -5 -30 16 0 8 -4 13 -9 10 -5 -4 -7 12 -3 36 4 36 3 41 -9 32
-8 -6 -33 -23 -57 -38 -36 -22 -41 -30 -32 -41 7 -8 15 -13 19 -11 4 3 8 -4 8
-15 1 -10 -3 -19 -9 -19 -6 0 -8 -10 -6 -23 3 -17 0 -23 -14 -23 -11 0 -16 6
-13 13 3 10 0 11 -15 3 -24 -13 -35 -30 -19 -30 7 0 9 -3 6 -6 -4 -4 -13 -1
-21 5 -10 8 -16 9 -21 1 -3 -5 -11 -10 -16 -10 -6 0 -7 4 -4 10 3 6 -1 7 -9 4
-9 -3 -16 -10 -16 -16 0 -5 5 -6 10 -3 6 3 10 1 10 -5 0 -6 -6 -13 -14 -16 -8
-3 -12 -13 -10 -22 5 -14 2 -13 -10 2 -9 11 -19 16 -23 13 -4 -4 3 -14 15 -23
12 -8 20 -20 17 -25 -4 -5 -2 -9 4 -9 5 0 13 5 16 10 3 6 2 10 -4 10 -6 0 -8
7 -5 15 4 8 13 15 21 15 8 0 11 5 8 10 -3 6 -2 10 3 10 6 0 13 -7 16 -16 3 -8
2 -13 -2 -10 -4 2 -14 1 -22 -4 -11 -7 -10 -11 4 -25 9 -10 15 -24 12 -32 -3
-8 -6 -17 -6 -19 0 -3 -4 -2 -10 1 -5 3 -18 1 -27 -5 -15 -9 -15 -11 -2 -7 13
4 15 1 11 -16 -3 -12 -10 -26 -16 -30 -8 -6 -7 -10 2 -14 6 -2 12 -10 12 -17
0 -15 -52 -66 -68 -66 -15 0 -15 13 0 28 9 9 9 12 0 12 -6 0 -15 -7 -20 -16
-5 -10 -15 -14 -21 -10 -9 6 -7 13 7 24 24 21 27 79 7 127 -9 19 -13 35 -9 35
3 0 -4 17 -14 38 -11 20 -34 66 -51 102 -35 73 -97 187 -110 204 -7 10 -95
174 -139 261 -9 17 -20 33 -26 37 -6 4 -7 8 -3 8 4 0 4 8 -1 17 -10 18 -42 27
-42 12 0 -5 -4 -9 -9 -9 -5 0 -7 9 -4 20 4 16 8 18 19 9 8 -6 14 -9 14 -5 0
13 -70 145 -80 151 -6 3 -8 10 -5 14 2 5 -2 17 -11 27 -16 20 -16 24 1 -119 2
-21 7 -73 10 -115 4 -42 8 -88 11 -102 4 -24 18 -148 29 -260 9 -92 13 -166 8
-142 -2 12 -9 22 -14 22 -6 0 -7 9 -4 21 5 16 4 19 -6 14 -9 -6 -11 -3 -6 9 4
9 3 15 -2 11 -5 -3 -11 1 -14 7 -3 7 -5 2 -4 -12 1 -14 6 -29 12 -33 6 -6 3
-7 -7 -4 -9 3 -24 0 -34 -8 -15 -11 -20 -10 -30 3 -9 12 -13 12 -19 2 -5 -9
-4 -11 3 -6 7 4 12 3 12 -1 0 -5 -9 -14 -21 -21 -16 -10 -18 -16 -9 -27 8 -10
8 -15 -1 -21 -7 -4 -9 -3 -5 4 3 6 2 13 -4 17 -5 3 -10 1 -10 -5 0 -7 -6 -8
-19 -1 -10 6 -21 7 -25 4 -3 -3 -6 -1 -6 5 0 7 -4 12 -9 12 -5 0 -7 -10 -4
-22 l6 -23 -20 22 -19 22 -13 -21 c-9 -14 -16 -17 -23 -10 -10 10 -65 -12 -80
-33 -5 -6 -8 -5 -8 3 0 8 -5 10 -12 5 -7 -4 -16 -8 -20 -8 -3 0 -10 -4 -15 -9
-4 -5 -4 -7 2 -4 15 8 55 -9 55 -24 0 -10 -2 -10 -9 1 -6 9 -18 12 -36 7 -20
-5 -37 -1 -64 17 -44 29 -81 49 -81 44 0 -3 18 -17 41 -31 22 -15 38 -30 35
-33 -3 -3 2 -11 11 -18 13 -10 11 -11 -15 -7 -27 4 -30 2 -25 -17 3 -12 1 -21
-6 -21 -6 0 -11 -5 -11 -11 0 -6 7 -9 15 -5 9 3 15 0 15 -10 0 -9 -5 -12 -12
-8 -8 5 -9 2 -4 -11 5 -15 4 -16 -8 -6 -11 9 -14 8 -12 -6 1 -12 -5 -17 -16
-15 -13 2 -16 -2 -11 -14 4 -12 3 -15 -5 -10 -7 4 -12 2 -12 -3 0 -6 -5 -11
-11 -11 -7 0 -22 -11 -35 -25 -29 -31 -48 -33 -41 -2 7 24 -4 49 -19 46 -5 -1
-14 -1 -20 0 -12 1 -51 89 -76 170 -12 37 -13 -12 -10 -369 3 -253 1 -415 -5
-421 -11 -11 -624 -16 -641 -5 -6 3 -10 160 -11 413 -1 439 -7 810 -17 938 -3
44 -7 116 -8 161 -3 78 -4 81 -40 115 -52 49 -60 57 -72 71 -6 7 -21 21 -33
31 -12 10 -19 21 -17 26 3 5 -7 14 -23 20 -15 7 -34 23 -41 36 -7 14 -17 22
-21 19 -4 -2 -13 5 -19 16 -6 11 -15 20 -19 20 -11 0 -191 173 -191 183 0 4 9
3 21 -3 18 -10 19 -9 11 7 -9 15 -7 19 8 20 13 1 17 -3 14 -15 -5 -15 -4 -15
6 1 11 17 36 25 25 7 -3 -5 3 -17 14 -26 18 -16 18 -42 0 -54 -4 -3 -4 -12 1
-20 7 -11 13 -12 36 -2 33 15 38 10 43 -40 1 -5 5 -8 11 -8 6 0 6 9 0 25 -7
19 -6 25 4 25 26 0 10 29 -40 76 -27 26 -120 116 -207 201 -90 88 -163 151
-169 147 -6 -4 -8 -3 -5 3 8 12 -61 78 -71 68 -4 -4 -1 -10 6 -12 19 -7 14
-22 -12 -34 -14 -7 -23 -18 -21 -28 2 -9 4 -20 4 -25 1 -4 10 -6 21 -3 15 4
20 0 20 -14 0 -21 16 -26 23 -6 4 7 8 3 12 -10 4 -13 12 -23 17 -23 6 0 5 -7
-2 -15 -16 -19 3 -20 22 -2 7 8 22 14 32 14 18 0 18 -1 0 -14 -16 -12 -16 -13
-1 -13 20 0 22 -11 5 -28 -22 -22 -42 -12 -110 51 -37 34 -75 68 -83 75 -13
11 -14 17 -3 30 10 14 10 15 -2 5 -21 -19 -24 -17 -82 38 -29 28 -69 62 -88
77 -19 14 -48 39 -64 54 -22 22 -32 26 -46 18 -22 -12 -33 0 -19 20 13 21 11
30 -5 24 -9 -3 -17 3 -21 15 -3 12 -11 21 -17 21 -5 0 -7 7 -4 16 3 8 2 12 -4
9 -6 -3 -10 -1 -10 5 0 6 -4 8 -10 5 -6 -3 -7 1 -4 9 3 9 1 16 -5 16 -6 0 -11
8 -11 18 0 14 -2 14 -9 3 -8 -12 -16 -10 -45 12 -19 15 -42 40 -51 55 -9 15
-29 35 -45 44 -19 11 -29 27 -34 52 -7 34 -4 39 41 81 57 53 61 48 -90 107
-60 23 -111 47 -114 55 -3 7 -8 11 -12 9 -4 -3 -13 -1 -20 3 -10 7 -10 13 1
32 7 13 18 29 25 36 7 8 10 21 7 31 -3 9 2 6 11 -8 9 -14 14 -17 11 -7 -3 9
-1 17 5 17 6 0 9 6 6 13 -2 6 5 19 15 28 16 14 16 18 3 23 -8 3 -15 1 -15 -4
0 -6 -4 -10 -10 -10 -5 0 -10 7 -10 15 0 8 -7 15 -16 15 -9 0 -28 9 -44 20
-15 11 -30 17 -33 14 -12 -12 -57 29 -57 52 0 31 26 94 38 94 5 0 8 18 6 41
-3 35 -1 40 14 34 14 -5 15 -4 5 6 -17 17 -16 57 1 91 8 15 17 40 21 57 l7 31
-315 0 -315 0 -73 -57 c-109 -85 -317 -222 -348 -229 -14 -4 -35 -14 -45 -23
-16 -13 -18 -13 -11 -1 5 9 0 8 -13 -4 -12 -11 -22 -16 -22 -12 0 3 -14 -7
-31 -24 -33 -31 -40 -34 -74 -30 -17 2 -18 0 -5 -16 14 -16 13 -16 -10 -4 -42
22 -52 32 -39 40 6 4 10 13 7 20 -3 9 -8 9 -20 -3 -13 -13 -20 -14 -42 -4 -14
7 -26 15 -26 20 0 11 24 9 36 -3 7 -7 21 -1 45 20 19 16 39 30 45 30 6 0 28
13 49 30 20 16 67 46 103 66 78 43 235 149 252 170 11 12 -5 14 -111 14 -96 0
-120 -3 -111 -12 24 -24 10 -38 -80 -83 -95 -48 -133 -62 -123 -44 4 5 10 7
14 5 4 -3 13 -1 21 5 11 6 9 9 -11 9 -28 0 -54 -22 -41 -34 4 -4 2 -6 -3 -4
-15 4 -86 -42 -80 -53 4 -5 -1 -6 -9 -3 -8 3 -20 22 -26 42 -6 21 -16 47 -22
59 -6 12 -8 28 -5 37 4 9 1 13 -6 10 -8 -3 -18 10 -26 31 l-12 35 -1310 0
c-1157 0 -1309 -2 -1309 -15 0 -8 -5 -15 -11 -15 -5 0 -8 -4 -5 -9 4 -5 1 -20
-4 -33 -9 -19 -10 -20 -7 -2 2 11 -1 28 -7 36 -9 13 -12 8 -12 -23 -1 -22 2
-39 6 -39 5 0 15 -3 23 -6 12 -4 14 0 10 18 -3 13 -3 20 0 17 6 -4 14 -37 16
-62 1 -5 6 -5 11 -2 6 4 10 -5 10 -20 0 -22 -3 -25 -22 -21 -13 3 -8 -1 9 -9
18 -8 38 -24 45 -35 7 -11 18 -20 24 -20 7 0 15 -8 18 -17 6 -14 9 -15 15 -4
10 15 32 6 30 -12 -4 -30 1 -41 13 -29 8 8 17 8 30 1 10 -5 23 -7 28 -4 5 3 7
-1 4 -9 -4 -10 0 -13 14 -9 10 2 25 -2 33 -10 8 -7 20 -12 27 -9 8 2 10 -2 5
-14 -4 -11 -3 -15 5 -10 6 3 13 2 17 -4 3 -5 17 2 30 18 14 15 25 21 25 15 0
-7 -5 -13 -12 -13 -9 0 -9 -3 0 -12 15 -15 16 -32 2 -23 -16 10 -12 -2 8 -21
15 -16 15 -17 0 -12 -11 5 -18 0 -21 -13 -4 -14 -1 -19 8 -15 8 3 12 -2 10
-12 -2 -9 -4 -20 -4 -24 -1 -5 -6 -8 -12 -8 -6 0 -8 7 -5 16 5 12 2 15 -10 10
-8 -3 -18 -6 -20 -6 -2 0 -4 -12 -4 -26 0 -16 -5 -24 -12 -21 -8 2 -12 16 -10
34 2 21 -2 32 -14 37 -13 5 -14 9 -4 21 9 11 9 15 1 15 -7 0 -10 4 -7 8 2 4 1
14 -5 22 -7 12 -9 11 -9 -5 0 -11 -16 -35 -35 -54 -19 -19 -35 -30 -35 -25 0
5 11 18 23 29 l24 20 -25 12 c-29 15 -35 16 -27 4 3 -5 -1 -16 -9 -24 -8 -8
-12 -18 -8 -22 4 -5 1 -5 -6 -1 -7 4 -9 13 -5 19 14 22 10 48 -6 45 -9 -2 -15
-11 -15 -21 1 -9 -2 -14 -7 -11 -5 3 -9 11 -9 19 0 7 -6 15 -14 18 -14 6 -15
3 -16 -75 0 -29 -5 -38 -18 -38 -11 0 -18 -8 -18 -20 0 -11 4 -20 8 -20 4 0 8
7 8 15 0 8 5 15 10 15 19 0 10 -21 -22 -52 -18 -17 -27 -27 -19 -23 17 10 33
-15 20 -31 -13 -15 6 -13 41 5 25 12 25 12 -2 -12 l-27 -25 22 -16 c18 -13 19
-14 3 -9 -13 4 -17 3 -12 -5 3 -6 1 -14 -5 -18 -8 -4 -9 -3 -5 4 8 13 -30 36
-44 27 -6 -3 -10 -13 -10 -22 0 -11 6 -14 21 -10 15 4 19 2 15 -9 -3 -9 -1
-12 4 -9 6 3 10 0 10 -9 0 -8 6 -17 13 -19 9 -4 9 -6 -1 -6 -18 -1 -65 24
-134 71 -32 21 -58 36 -58 33 0 -2 25 -21 55 -41 36 -24 52 -41 46 -48 -9 -12
-11 -50 -2 -40 3 3 7 10 7 15 1 5 2 14 3 19 0 6 6 10 12 10 8 0 9 -4 0 -13 -6
-8 -8 -16 -5 -19 3 -3 -9 -16 -25 -28 -17 -12 -31 -18 -31 -14 0 5 -5 3 -12
-4 -7 -7 -16 -12 -21 -12 -5 0 -1 7 7 16 9 8 22 12 28 8 10 -5 10 -4 1 6 -10
10 -15 11 -27 1 -10 -8 -16 -9 -21 -1 -3 5 -1 10 5 10 6 0 8 5 5 10 -3 6 -13
10 -21 10 -8 0 -12 -4 -9 -10 3 -5 1 -10 -4 -10 -6 0 -11 -4 -11 -10 0 -5 7
-10 15 -10 8 0 15 -5 15 -10 0 -6 -14 -3 -32 6 -21 10 -28 11 -20 3 6 -7 12
-20 12 -28 -1 -13 -4 -12 -15 3 -8 11 -15 14 -15 8 0 -7 -5 -12 -10 -12 -7 0
-7 6 -1 19 8 14 7 20 -4 24 -9 4 -12 1 -9 -7 3 -7 -2 -19 -10 -26 -13 -10 -17
-9 -23 6 -4 11 -13 24 -21 30 -9 7 -12 16 -7 24 5 8 -1 7 -16 -3 -29 -21 -52
-22 -25 -2 18 14 18 15 -8 27 -28 12 -28 12 -5 20 22 8 22 9 3 23 -10 8 -25
15 -31 15 -16 0 -17 22 -2 37 13 13 -7 13 -28 0 -8 -5 -13 -4 -13 2 0 6 5 11
11 11 6 0 9 6 7 13 -4 11 24 47 37 47 3 0 8 0 13 0 4 0 -8 9 -25 20 -18 11
-33 22 -33 25 0 4 5 3 12 -1 7 -5 9 0 6 14 -5 19 -3 20 13 12 10 -6 22 -18 27
-26 7 -13 11 -14 17 -4 4 7 2 16 -6 20 -36 21 -89 65 -89 73 0 5 7 4 16 -4 10
-8 18 -9 22 -3 4 6 15 14 26 17 10 4 16 13 13 21 -3 8 -1 17 6 20 7 4 -6 4
-28 1 -22 -2 -41 -9 -43 -14 -2 -6 -10 -7 -18 -4 -7 3 -11 9 -8 14 3 5 9 7 14
4 8 -5 24 25 16 32 -2 3 -13 0 -23 -6 -15 -8 -20 -7 -20 5 0 7 4 14 9 14 5 0
27 8 48 19 21 10 41 16 44 13 12 -11 5 -23 -19 -34 -14 -6 -25 -16 -25 -21 0
-5 6 -4 14 2 8 7 23 11 33 9 15 -2 18 4 18 32 -1 19 6 40 14 46 8 6 11 18 8
28 -4 9 -2 16 3 16 5 0 10 10 12 23 2 12 9 21 16 19 12 -2 52 77 52 101 -1 7
-7 -1 -14 -18 -7 -16 -24 -36 -38 -44 -14 -7 -31 -27 -37 -45 -10 -30 -10 -30
-5 9 9 59 9 59 18 73 7 12 4 12 -13 2 -22 -11 -22 -11 -6 21 15 29 15 31 1 26
-20 -8 -20 3 -1 29 15 18 15 18 8 0 -4 -13 -3 -17 5 -12 7 4 12 14 12 22 0 12
-163 14 -1207 14 -663 0 -1203 -3 -1200 -7 4 -3 2 -12 -3 -18 -7 -9 -5 -17 7
-26 14 -12 16 -12 8 0 -6 10 -4 12 4 6 9 -5 9 -11 3 -17 -6 -6 -8 -17 -5 -24
3 -8 -1 -14 -8 -14 -19 0 -18 -62 1 -86 14 -18 14 -18 -2 -5 -16 12 -18 11
-18 -3 0 -9 -5 -16 -11 -16 -8 0 -8 -4 -2 -12 5 -7 8 -26 7 -42 -2 -23 0 -27
15 -23 10 2 18 -1 18 -9 0 -7 -4 -11 -9 -8 -4 3 -8 -1 -8 -9 0 -8 -7 -20 -15
-27 -8 -7 -15 -17 -15 -22 0 -5 7 -2 16 6 8 9 20 13 26 10 6 -4 -5 -21 -28
-42 -27 -25 -31 -30 -11 -18 26 16 27 16 27 -5 0 -19 2 -20 17 -8 11 10 14 10
9 2 -4 -8 -2 -13 4 -13 6 0 8 -4 5 -10 -9 -14 8 -12 24 3 8 6 11 7 8 1 -4 -6
1 -20 9 -30 9 -10 12 -13 8 -5 -4 9 -2 12 7 9 8 -3 13 -11 12 -17 -2 -6 2 -11
8 -11 5 0 7 -4 4 -10 -9 -15 7 -12 29 5 23 17 94 19 175 5 31 -5 99 -14 151
-21 52 -6 100 -15 105 -21 6 -6 4 -7 -7 -3 -10 4 -31 2 -48 -3 -21 -8 -32 -8
-36 0 -5 7 -2 8 6 3 9 -5 11 -4 6 3 -10 17 -53 15 -59 -3 -4 -8 -15 -12 -29
-10 -86 17 -84 16 -65 4 17 -10 34 -15 62 -19 6 0 -3 -7 -20 -14 l-30 -14 33
-7 c18 -4 35 -12 38 -17 3 -5 12 -4 20 3 8 6 14 7 14 2 0 -5 17 -18 38 -28 41
-20 114 -37 107 -25 -3 5 4 6 15 3 11 -3 20 -9 20 -14 0 -5 12 -9 26 -9 14 0
34 -5 45 -11 26 -14 58 -4 41 13 -7 7 -12 17 -12 22 0 6 7 0 16 -12 8 -12 12
-27 9 -32 -4 -6 8 -10 29 -10 23 0 34 4 32 13 -1 6 -1 9 1 5 7 -12 28 -9 41 4
7 7 29 11 49 9 20 -1 39 2 43 9 4 7 28 14 52 17 38 4 49 2 67 -18 30 -32 28
-59 -3 -53 -14 2 -28 -1 -32 -7 -4 -8 -3 -9 4 -5 7 4 12 3 12 -2 0 -5 -9 -12
-20 -15 -13 -3 -18 -1 -13 6 3 7 -3 4 -14 -6 -12 -10 -29 -17 -40 -15 -11 2
-17 -2 -15 -11 2 -8 -3 -11 -12 -8 -9 4 -15 2 -13 -4 1 -6 -9 -18 -23 -27 -13
-9 -21 -12 -17 -5 4 6 3 14 -2 17 -14 9 -20 -18 -7 -35 6 -9 18 -14 26 -12 10
3 8 -2 -6 -14 -11 -10 -21 -22 -22 -27 -1 -6 -8 -11 -17 -12 -13 -2 -13 1 1
28 11 21 12 33 5 42 -6 7 -8 16 -4 19 3 4 2 7 -4 7 -5 0 -25 -44 -43 -97 -18
-54 -36 -102 -40 -106 -11 -13 7 81 25 129 9 23 14 48 13 55 -2 8 4 13 12 11
11 -2 9 2 -4 13 -10 8 -23 12 -27 9 -5 -3 -9 0 -9 6 0 6 -4 9 -9 6 -13 -9 -42
4 -35 16 4 5 -8 8 -27 5 -20 -2 -33 -9 -31 -16 1 -7 -2 -10 -8 -6 -5 3 -10 13
-10 21 0 8 -4 12 -10 9 -5 -3 -10 -1 -10 5 0 6 -4 9 -9 6 -5 -3 -23 -1 -40 5
-30 10 -31 12 -14 25 16 13 15 13 -8 3 -22 -9 -38 -7 -85 10 -33 12 -68 24
-79 26 -49 11 -135 41 -135 48 0 4 -12 7 -26 7 -19 0 -25 4 -20 15 4 12 2 13
-13 6 -10 -6 -22 -7 -26 -3 -3 4 -12 7 -18 7 -7 1 -11 7 -9 15 2 8 0 12 -3 8
-14 -14 -46 12 -40 32 5 15 0 21 -19 26 -14 3 -23 10 -20 16 3 5 -2 8 -12 6
-14 -2 -19 3 -18 19 1 14 -3 20 -12 16 -15 -5 -7 -34 13 -46 7 -5 11 -12 8
-17 -3 -5 0 -12 6 -16 8 -4 9 -3 5 4 -4 7 -3 12 2 12 10 0 24 -41 17 -49 -3
-2 -5 1 -5 8 0 7 -4 10 -9 6 -5 -3 -12 -1 -16 5 -10 16 -28 12 -22 -4 4 -9 1
-13 -6 -11 -14 5 -61 15 -95 20 -12 2 -19 -1 -16 -6 3 -5 12 -8 19 -7 8 2 14
-1 14 -7 0 -5 -9 -9 -19 -8 -10 1 -24 -5 -32 -14 -9 -12 -9 -15 0 -9 7 4 12 2
12 -4 0 -6 5 -8 13 -4 8 5 8 2 -2 -9 -7 -9 -20 -17 -28 -17 -13 0 -13 -2 -2
-16 12 -15 11 -16 -11 -9 l-25 8 20 -23 c11 -13 15 -20 8 -16 -13 7 -43 -51
-43 -84 0 -10 -7 -23 -15 -30 -8 -7 -12 -16 -9 -21 4 -8 -8 -13 -27 -11 -3 1
-6 -5 -6 -13 0 -8 4 -12 8 -9 4 2 -6 -23 -23 -56 -16 -33 -33 -58 -38 -55 -4
3 -11 -2 -14 -11 -4 -11 -2 -15 7 -11 8 3 20 1 28 -4 11 -7 10 -9 -6 -9 -21 0
-60 -56 -45 -65 14 -9 4 -40 -14 -39 -8 1 -13 -2 -10 -8 8 -13 -24 -58 -42
-58 -8 0 -13 -4 -10 -8 3 -5 -8 -21 -25 -36 -16 -16 -26 -33 -22 -39 4 -7 -1
-6 -10 2 -15 12 -17 12 -12 0 3 -8 -8 -30 -25 -49 -16 -18 -30 -37 -30 -40 0
-4 -11 -13 -25 -20 -14 -7 -25 -17 -25 -22 0 -5 6 -6 13 -2 6 4 -4 -7 -23 -24
-19 -16 -38 -28 -42 -25 -5 2 -8 -1 -8 -7 0 -6 10 -15 23 -20 12 -5 16 -9 7
-9 -18 -1 -110 -78 -110 -92 0 -6 5 -7 10 -4 5 3 10 2 10 -4 0 -6 -11 -13 -23
-16 -13 -4 -35 -24 -48 -45 -13 -22 -28 -40 -32 -40 -5 0 -6 -4 -3 -9 3 -5 -2
-8 -11 -7 -9 0 -24 -15 -37 -40 -12 -22 -32 -56 -46 -75 -14 -19 -31 -46 -38
-61 -11 -26 -10 -28 13 -28 14 0 25 -5 25 -11 0 -5 -4 -7 -10 -4 -5 3 -10 1
-10 -4 0 -6 -7 -11 -16 -11 -8 0 -12 5 -9 10 3 6 -1 10 -10 10 -9 0 -13 -4
-10 -10 3 -5 1 -10 -5 -10 -6 0 -9 -4 -6 -9 6 -9 -23 -21 -60 -25 -11 -2 -25
-6 -31 -9 -7 -5 -9 0 -6 12 3 10 0 22 -6 25 -7 4 -8 1 -5 -8 7 -19 -21 -22
-32 -4 -4 7 -3 8 4 4 7 -4 12 -3 12 3 0 15 -14 21 -29 11 -8 -5 -10 -13 -5
-21 6 -12 5 -12 -8 -1 -18 14 -36 13 -56 -5 -7 -7 -24 -13 -37 -13 -13 0 -27
-5 -30 -10 -4 -6 -10 -8 -15 -5 -4 3 -13 -2 -20 -10 -7 -8 -18 -15 -25 -15 -7
0 -18 -7 -26 -16 -7 -8 -21 -13 -31 -11 -10 3 -28 -3 -41 -13 -13 -10 -49 -30
-80 -44 -31 -14 -57 -30 -57 -36 0 -6 -8 -9 -18 -6 -12 4 -26 -1 -37 -14 -14
-16 -20 -17 -26 -8 -6 10 -11 9 -21 -5 -8 -10 -18 -17 -23 -16 -6 1 -17 0 -25
-4 -8 -3 -28 -10 -45 -15 -16 -5 -29 -15 -27 -21 1 -6 -5 -11 -13 -11 -8 0
-15 8 -15 18 0 10 -3 13 -8 6 -8 -13 -56 -25 -91 -25 -13 1 -30 -4 -37 -10 -8
-6 -23 -9 -34 -6 -11 3 -20 2 -20 -2 0 -4 -8 -7 -17 -8 -10 0 -33 -5 -51 -11
-23 -8 -31 -8 -26 0 5 7 1 9 -9 5 -9 -3 -19 -2 -23 4 -3 6 -13 7 -23 4 -9 -4
-37 -9 -62 -11 -26 -2 -52 -5 -59 -6 -7 -2 -16 7 -21 20 -8 21 -6 22 51 22 32
0 65 2 72 5 8 3 24 -4 36 -15 12 -11 22 -16 22 -9 0 8 4 8 13 2 19 -16 43 -11
44 9 1 10 -2 18 -8 18 -5 0 -9 -7 -9 -15 0 -12 -4 -13 -17 -6 -10 5 -22 9 -26
9 -26 1 -13 12 24 22 89 23 111 32 120 54 9 20 9 20 5 -2 -4 -19 -1 -22 12
-17 9 4 24 8 32 10 47 10 140 40 172 56 21 11 48 19 60 19 13 0 46 13 74 28
207 111 264 145 264 158 0 8 7 17 15 20 8 4 15 13 15 21 0 8 5 11 10 8 6 -4
31 14 56 40 53 56 135 93 154 70 12 -15 44 -9 34 6 -5 9 15 13 47 10 18 -2 99
75 232 222 49 53 95 97 103 97 9 0 12 5 8 11 -4 7 1 9 12 7 11 -2 18 -9 17
-14 -1 -6 5 -11 13 -11 12 0 12 3 -1 17 -20 23 -19 31 10 62 26 28 32 48 16
48 -5 0 -11 -6 -14 -12 -2 -7 -4 0 -4 15 0 20 3 25 10 18 15 -15 57 11 90 56
16 21 48 64 71 97 24 32 65 103 92 157 26 54 52 95 56 93 8 -5 12 10 9 33 -1
7 14 43 33 80 87 173 125 299 141 467 3 32 7 62 10 66 2 3 7 33 10 66 3 32 8
78 10 102 l5 42 -1620 0 -1620 0 0 -425z m3953 310 c10 -4 28 -9 40 -10 37 -4
38 -5 32 -15 -3 -5 -1 -11 4 -11 6 -1 16 -3 21 -4 6 -1 14 -3 20 -4 5 0 7 -8
4 -16 -4 -8 -1 -15 7 -15 7 0 9 -3 6 -7 -4 -3 -1 -13 5 -22 10 -13 10 -14 -2
-3 -20 17 -46 16 -31 -2 18 -22 -10 -40 -35 -22 -16 12 -20 12 -33 -7 -14 -19
-15 -19 -21 -2 -6 16 -8 16 -22 2 -9 -9 -18 -13 -22 -10 -3 4 -6 1 -6 -5 0 -6
-7 -9 -15 -6 -11 4 -15 0 -15 -16 0 -17 -3 -20 -13 -12 -18 15 -44 9 -62 -14
-13 -16 -16 -17 -25 -4 -6 10 -10 11 -10 3 0 -7 -6 -10 -14 -7 -7 3 -16 -2
-20 -11 -3 -9 -11 -13 -17 -9 -8 4 -7 9 2 15 10 6 10 9 2 9 -6 0 -15 -4 -18
-10 -10 -16 -25 -11 -23 8 4 54 -3 56 -32 10 -17 -27 -35 -48 -40 -48 -6 0
-10 -7 -10 -15 0 -8 -3 -14 -7 -14 -20 3 -34 -2 -28 -11 12 -20 -21 2 -37 24
-19 26 -32 80 -17 71 5 -4 9 3 9 13 0 11 7 36 15 55 36 86 129 135 164 88 l16
-21 25 23 c14 13 34 28 44 34 21 12 130 10 159 -2z m-2249 -54 c7 -6 21 -9 30
-5 9 3 16 1 16 -6 0 -6 5 -8 10 -5 6 3 10 2 10 -4 0 -6 6 -8 14 -5 8 3 17 0
21 -5 3 -6 11 -9 16 -6 5 4 9 1 9 -4 0 -6 10 -11 23 -11 19 0 63 -19 45 -20
-4 0 4 -12 17 -26 14 -15 25 -31 25 -36 0 -5 5 -6 12 -2 7 4 8 3 4 -5 -4 -6
-12 -8 -18 -5 -7 5 -9 2 -6 -8 4 -8 -2 -21 -12 -28 -11 -8 -17 -17 -14 -22 3
-4 -5 -8 -18 -8 -13 0 -41 -17 -64 -40 -23 -21 -45 -36 -48 -32 -4 3 -4 -2 0
-12 6 -15 4 -17 -6 -11 -10 6 -12 4 -7 -9 6 -14 3 -17 -8 -12 -9 3 -18 -1 -21
-9 -4 -8 -13 -15 -20 -15 -8 0 -20 -11 -26 -25 -6 -14 -19 -25 -28 -25 -9 0
-21 -5 -28 -12 -9 -9 -15 -9 -24 0 -9 9 -17 6 -34 -13 -19 -21 -24 -22 -35 -9
-7 9 -20 12 -32 8 -13 -4 -17 -2 -13 5 9 14 -9 14 -34 1 -16 -9 -18 -8 -13 6
5 13 3 15 -8 8 -17 -11 -129 -12 -129 -2 0 5 -7 8 -16 8 -12 0 -15 6 -11 23 3
12 0 38 -7 57 -13 40 -3 104 22 133 8 9 11 17 7 17 -5 0 1 9 13 20 12 11 23
20 26 20 10 0 54 49 48 54 -3 3 -1 6 4 6 6 0 20 9 32 20 53 49 237 83 276 51z
m5830 -96 c3 -9 0 -15 -10 -15 -11 0 -14 -6 -10 -16 3 -8 2 -12 -4 -9 -6 3
-10 1 -10 -5 0 -6 -5 -8 -10 -5 -6 4 -9 1 -8 -6 2 -7 -7 -18 -20 -24 -13 -5
-20 -16 -17 -24 3 -9 0 -11 -10 -7 -9 3 -15 0 -15 -10 0 -9 -8 -18 -19 -21
-10 -2 -24 -15 -31 -29 -7 -13 -17 -21 -22 -18 -4 3 -8 0 -8 -6 0 -6 -4 -8
-10 -5 -14 9 -12 -9 3 -24 6 -7 8 -11 2 -10 -25 6 -67 -16 -95 -50 -48 -56
-50 -60 -50 -70 0 -5 -7 -11 -15 -14 -21 -9 -3 33 46 106 45 68 51 86 13 42
l-25 -30 23 43 c20 38 128 160 128 145 0 -3 9 5 20 18 26 33 25 15 -2 -24 -12
-18 -15 -26 -7 -20 9 7 20 9 24 5 5 -4 5 -2 2 4 -3 6 7 21 23 33 28 20 44 51
18 35 -7 -5 -8 -3 -3 6 6 10 10 10 19 -2 10 -13 13 -13 25 -1 7 8 20 12 28 9
8 -3 11 -1 8 4 -3 6 -2 10 3 10 6 0 12 -7 16 -15z m1107 -139 c-9 -11 -9 -20
-2 -34 8 -16 6 -25 -14 -46 -14 -15 -25 -24 -25 -21 0 4 -7 -1 -16 -9 -8 -9
-20 -14 -25 -11 -5 4 -9 2 -9 -4 0 -6 -7 -7 -17 -4 -10 4 -14 2 -10 -4 4 -5
-5 -15 -19 -22 -20 -9 -24 -9 -18 1 4 7 -1 5 -12 -4 -10 -9 -32 -20 -49 -24
-16 -3 -37 -12 -45 -19 -8 -7 -26 -15 -40 -17 -14 -1 -31 -9 -38 -16 -8 -7
-17 -10 -22 -7 -5 3 -11 1 -15 -4 -3 -6 -12 -8 -20 -4 -8 3 -15 0 -15 -6 0 -6
-7 -8 -17 -4 -12 5 -14 3 -8 -7 6 -10 4 -12 -7 -7 -9 3 -26 0 -40 -7 -13 -7
-29 -11 -36 -8 -6 2 -12 -2 -12 -8 0 -7 -7 -10 -15 -7 -8 4 -17 2 -20 -3 -4
-6 -14 -10 -23 -10 -9 0 -42 -11 -73 -24 -39 -16 -62 -20 -73 -14 -11 6 -16 6
-14 -2 2 -6 -11 -17 -29 -25 -26 -11 -34 -11 -42 -1 -9 10 -6 12 13 9 13 -3
26 0 30 5 4 6 -3 8 -16 5 -24 -5 97 53 212 102 89 38 97 49 15 19 -123 -45
-78 -18 77 46 84 35 187 79 228 98 234 109 286 128 261 98z m-3379 -271 c-16
-19 -16 -19 1 -5 11 8 21 10 25 4 11 -15 34 -16 45 -2 6 9 7 8 3 -5 -5 -15 -2
-17 14 -12 13 4 20 2 18 -6 -2 -6 6 -13 17 -15 11 -2 37 -7 58 -10 20 -3 37
-9 37 -13 0 -5 19 -14 43 -21 23 -7 46 -17 52 -22 5 -4 17 -8 26 -8 9 0 22 -7
29 -15 7 -8 20 -15 29 -15 9 0 34 -9 55 -21 21 -11 47 -18 57 -16 11 3 17 1
13 -4 -3 -5 8 -14 23 -21 15 -6 36 -18 46 -27 16 -13 16 -16 -8 -57 -20 -35
-22 -43 -10 -48 9 -3 12 -12 8 -23 -6 -16 -5 -17 13 -3 17 14 18 14 6 -2 -11
-14 -18 -15 -37 -6 -14 6 -22 15 -19 19 3 5 1 9 -4 9 -17 0 -22 -13 -9 -28 10
-13 9 -14 -10 -3 -13 6 -23 18 -23 25 0 13 -20 26 -39 26 -15 0 -9 -41 7 -48
9 -4 18 -18 19 -32 l3 -25 -16 28 c-8 15 -19 27 -25 27 -6 0 -7 -4 -4 -10 12
-19 -8 -10 -27 12 -16 19 -21 20 -28 8 -7 -11 -4 -17 10 -22 11 -4 20 -10 20
-12 0 -3 -7 -3 -15 0 -15 6 -22 -11 -7 -19 4 -2 1 -2 -7 0 -11 3 -10 -2 3 -16
10 -11 23 -18 27 -15 5 3 9 1 9 -4 0 -16 48 -21 54 -6 3 8 11 14 18 13 10 0
10 -2 1 -6 -20 -7 -15 -31 7 -38 11 -4 17 -11 14 -17 -4 -7 -9 -7 -13 0 -4 7
-12 8 -21 2 -19 -12 -33 -13 -26 -2 3 5 -5 8 -17 7 -12 -1 -32 2 -44 6 -17 6
-21 5 -16 -6 3 -8 0 -15 -7 -15 -10 0 -10 -3 0 -15 7 -8 16 -13 20 -10 5 3 12
0 16 -6 5 -8 3 -9 -5 -4 -9 5 -12 1 -10 -11 2 -11 0 -25 -5 -32 -5 -9 -1 -15
13 -19 30 -8 26 -40 -9 -73 -16 -15 -30 -32 -30 -37 0 -5 -9 -9 -20 -10 -11
-1 -18 2 -15 7 3 4 0 10 -7 12 -6 2 -8 10 -4 17 6 9 11 9 21 1 10 -8 15 -8 21
1 4 7 3 9 -4 5 -16 -10 -25 13 -12 29 9 10 9 15 1 15 -16 0 -42 -56 -34 -77 6
-15 4 -16 -9 -5 -10 8 -14 21 -10 34 3 14 1 19 -6 14 -7 -4 -12 -2 -12 4 0 7
7 9 15 6 19 -7 28 12 29 63 1 28 5 35 19 33 9 -2 18 3 18 10 1 7 3 23 4 35 2
16 -5 23 -24 28 -15 4 -27 2 -29 -4 -2 -6 -13 -11 -25 -11 -21 0 -21 -1 4 -18
21 -14 25 -21 18 -39 -4 -12 -6 -32 -4 -44 2 -12 2 -19 -2 -15 -3 3 -12 1 -20
-5 -10 -9 -10 -4 2 24 11 27 12 37 2 40 -9 4 -8 8 3 17 13 10 13 11 0 7 -9 -2
-14 -14 -13 -28 1 -13 -1 -19 -3 -12 -3 7 -13 9 -22 5 -15 -5 -15 -4 1 12 18
18 23 36 10 36 -16 0 -29 -17 -58 -74 -16 -33 -31 -54 -33 -48 -2 6 -10 8 -18
5 -8 -3 -14 0 -14 6 0 6 5 11 11 11 8 0 8 5 -1 15 -7 8 -17 12 -23 8 -6 -4 -8
2 -5 15 7 26 0 28 -16 6 -10 -13 -12 -9 -12 22 1 20 -4 39 -10 41 -11 4 -39
-45 -35 -61 1 -5 -7 -6 -18 -3 -13 3 -18 1 -14 -9 4 -10 -2 -11 -28 -4 -17 5
-36 7 -42 3 -6 -3 -7 -1 -3 5 4 7 3 12 -2 12 -15 0 -22 40 -11 67 12 33 3 42
-17 17 -8 -10 -13 -13 -9 -6 15 29 15 60 -1 66 -11 4 -15 2 -11 -7 4 -10 -2
-13 -19 -9 -13 2 -24 8 -24 13 0 5 -7 9 -15 9 -8 0 -15 -6 -15 -12 0 -7 -9
-26 -21 -43 -19 -28 -20 -28 -13 -5 6 23 6 24 -11 10 -17 -14 -17 -14 -6 8 7
13 10 26 8 29 -8 8 -37 -53 -37 -77 0 -13 -5 -20 -12 -17 -14 4 -16 44 -4 92
5 22 4 26 -4 15 -5 -8 -10 -24 -10 -35 0 -16 -2 -17 -10 -5 -7 12 -11 10 -18
-9 -16 -43 -21 -8 -5 39 27 84 67 150 91 150 6 0 12 5 14 12 3 7 14 5 33 -8
19 -12 26 -14 21 -5 -8 12 -2 13 32 7 35 -5 42 -3 42 10 0 11 -5 14 -17 10
-10 -4 -14 -3 -9 1 4 4 19 8 32 8 17 1 23 -3 19 -13 -4 -10 0 -12 11 -8 9 4
24 0 33 -7 23 -20 75 -32 66 -15 -4 7 -1 6 7 -2 7 -8 22 -16 33 -17 34 -2 61
-11 101 -31 22 -11 41 -20 44 -20 20 -1 71 -18 100 -33 29 -16 35 -17 42 -4 9
15 -22 55 -42 55 -5 0 -10 5 -10 11 0 6 -7 9 -15 5 -8 -3 -14 -2 -14 2 4 25
-4 40 -27 51 -15 6 -24 14 -22 17 8 7 159 -61 153 -69 -3 -4 -2 -5 1 -2 4 2
15 0 25 -5 12 -7 20 -7 24 0 3 5 1 10 -5 10 -6 0 -8 5 -4 12 4 6 3 8 -3 5 -13
-8 -80 19 -305 122 -98 44 -182 81 -186 81 -5 0 -17 7 -28 16 -10 8 -13 12 -5
8 9 -4 12 -2 9 7 -3 8 -11 13 -17 11 -7 -1 -11 1 -9 5 24 50 33 61 41 56 6 -4
8 0 4 10 -7 18 4 24 49 23 31 -1 32 -2 16 -21z m12782 4 c15 -12 26 -30 26
-45 0 -25 -38 -77 -51 -68 -4 2 -10 0 -14 -6 -9 -14 -37 -12 -59 5 -30 23 -25
83 9 112 32 28 55 29 89 2z m-8244 -169 c-11 -7 -10 -12 10 -28 25 -20 37 -62
18 -62 -6 0 -3 -7 8 -15 14 -11 15 -14 4 -15 -13 0 -13 -1 0 -10 8 -5 15 -14
15 -20 0 -6 7 -15 15 -20 12 -8 13 -12 2 -19 -11 -7 -11 -9 2 -14 9 -4 16 -2
16 4 0 27 24 -1 28 -32 2 -19 8 -40 14 -46 8 -10 3 -13 -20 -13 -17 0 -34 -5
-38 -12 -4 -7 -3 -8 4 -4 14 9 62 -22 62 -39 0 -7 6 -16 13 -18 7 -3 5 -6 -5
-6 -10 -1 -18 -8 -18 -17 0 -8 4 -13 9 -9 5 3 13 0 17 -6 4 -8 3 -9 -4 -5 -7
4 -12 1 -12 -8 0 -9 9 -21 20 -28 23 -15 27 -33 5 -24 -12 4 -13 2 -6 -13 6
-10 8 -21 4 -24 -11 -12 8 -57 24 -57 13 0 14 3 5 12 -17 17 -15 33 3 18 20
-16 32 -5 16 14 -8 10 -9 16 -1 21 5 3 10 -1 10 -9 0 -9 5 -16 10 -16 6 0 10
5 10 11 0 5 5 7 10 4 6 -3 10 -11 10 -16 0 -6 -4 -7 -10 -4 -5 3 -10 1 -10 -4
0 -6 11 -11 25 -11 14 0 25 -4 25 -9 0 -5 11 -8 25 -8 14 0 25 3 25 8 0 5 -6
9 -14 9 -7 0 -16 9 -19 20 -3 11 -1 17 4 14 5 -3 12 2 15 10 8 22 33 -3 26
-26 -3 -14 2 -18 22 -18 15 0 25 -4 22 -9 -9 -14 20 -21 34 -8 10 9 11 9 6 0
-4 -7 -3 -13 3 -13 5 0 12 6 15 13 2 6 4 -3 3 -22 -1 -20 3 -36 11 -38 8 -3
10 1 5 14 -6 17 -5 17 15 -1 12 -10 28 -16 37 -13 8 4 14 3 14 -1 -4 -22 2
-42 11 -37 9 5 84 -29 78 -37 -1 -1 5 -14 14 -27 10 -15 23 -21 32 -18 9 4 16
2 16 -4 0 -6 4 -8 8 -5 4 2 14 0 22 -6 12 -8 12 -9 -2 -4 -10 3 -18 1 -18 -4
0 -5 -13 -7 -30 -3 -33 6 -37 -2 -16 -33 12 -16 12 -23 1 -37 -10 -14 -14 -15
-18 -5 -4 8 -6 7 -6 -4 -1 -11 6 -18 17 -18 12 -1 9 -5 -11 -16 -23 -12 -31
-13 -43 -3 -12 10 -15 10 -12 -1 7 -30 22 -40 36 -22 12 15 13 14 8 -10 -3
-21 0 -29 16 -34 17 -5 18 -8 7 -16 -11 -7 -11 -11 -1 -15 6 -2 9 -10 5 -16
-4 -6 0 -8 10 -4 8 3 21 -1 27 -9 7 -8 9 -14 4 -14 -4 0 -3 -5 3 -11 6 -6 9
-18 6 -27 -4 -10 -2 -13 5 -8 7 4 12 1 12 -6 0 -8 9 -31 20 -53 11 -22 20 -48
20 -58 0 -11 5 -15 11 -11 8 4 9 -1 4 -16 -5 -15 -3 -20 3 -16 6 3 13 2 17 -4
3 -5 -1 -10 -9 -10 -14 0 -14 -4 1 -35 9 -19 23 -35 31 -35 9 0 13 -7 9 -20
-3 -11 -2 -18 2 -15 11 6 32 -70 25 -89 -4 -11 -1 -16 10 -16 9 0 16 -4 16
-10 0 -15 2 -22 17 -58 8 -19 9 -31 4 -27 -6 3 -11 0 -11 -7 0 -9 -3 -9 -10 2
-6 9 -10 10 -10 3 0 -6 10 -19 22 -27 18 -13 19 -16 6 -16 -12 0 -15 -5 -11
-17 4 -11 8 -12 11 -5 5 15 32 16 32 1 0 -5 -4 -7 -10 -4 -5 3 -10 2 -10 -4 0
-5 9 -13 21 -16 11 -4 18 -9 16 -12 -3 -2 -14 0 -25 6 -16 8 -21 7 -26 -4 -3
-10 1 -15 12 -16 10 0 12 -3 5 -6 -9 -3 -8 -11 4 -29 14 -22 14 -24 -1 -18 -9
3 -16 11 -16 18 0 6 -4 5 -9 -3 -7 -11 -10 -9 -16 8 -3 11 -3 25 0 31 3 5 2
10 -3 10 -5 0 -15 19 -21 43 -7 23 -22 61 -32 85 -11 23 -32 77 -48 120 -16
43 -43 102 -60 132 -17 30 -40 73 -52 95 -21 43 -48 90 -76 132 -14 21 -15 25
-3 18 11 -6 10 -3 -2 12 -10 11 -18 25 -18 31 0 7 -5 12 -11 12 -5 0 -7 5 -4
10 3 6 0 10 -7 10 -9 0 -9 3 2 10 11 8 7 9 -14 4 -18 -4 -27 -3 -23 3 3 5 0
10 -8 10 -8 0 -15 -6 -15 -14 0 -7 -4 -13 -10 -13 -5 0 -10 -12 -10 -26 0 -14
4 -23 10 -19 6 3 10 0 10 -8 0 -7 9 -32 20 -55 12 -24 18 -47 15 -52 -3 -5 -1
-11 5 -15 6 -3 20 -25 31 -47 l21 -41 -28 7 c-24 6 -26 5 -15 -8 8 -9 18 -16
24 -16 13 0 36 -31 37 -48 0 -7 -5 -10 -10 -7 -6 4 -8 10 -5 15 3 4 -1 13 -8
19 -11 8 -13 4 -9 -19 2 -17 9 -30 14 -30 5 0 7 -4 3 -10 -6 -10 15 -50 26
-50 4 0 5 10 2 23 -7 28 9 12 25 -25 8 -20 8 -28 1 -28 -8 0 -8 -4 0 -13 6 -8
8 -17 4 -20 -3 -4 -1 -7 6 -7 8 0 11 -6 7 -16 -3 -8 -2 -12 4 -9 9 6 14 -10
13 -42 -1 -7 3 -11 7 -8 18 11 16 -47 -2 -70 -17 -21 -17 -24 -3 -18 15 5 16
3 6 -15 -11 -20 -8 -26 10 -24 7 1 3 -43 -5 -56 -3 -5 6 -22 19 -36 14 -15 25
-34 25 -43 0 -14 -3 -13 -21 3 -21 19 -21 19 1 -24 18 -34 20 -45 10 -57 -11
-13 -10 -14 1 -10 10 4 15 -1 15 -15 0 -11 -3 -20 -7 -20 -16 0 -31 32 -27 59
2 17 0 29 -5 28 -5 -1 -18 30 -28 68 -33 127 -112 357 -134 389 -8 10 -11 25
-8 32 3 8 0 14 -6 14 -6 0 -11 9 -11 20 0 11 -4 20 -10 20 -5 0 -10 6 -10 14
0 7 -9 25 -20 39 -11 14 -20 36 -20 49 0 12 -5 30 -10 38 -8 12 -10 12 -10 1
0 -8 -3 -12 -6 -8 -3 3 -5 8 -5 11 1 4 -8 16 -19 29 -12 12 -20 31 -18 42 1
11 -5 31 -15 45 -9 13 -17 19 -17 13 0 -8 -9 -9 -31 -3 -18 5 -29 7 -26 3 4
-3 -3 -19 -15 -36 -12 -17 -17 -28 -11 -24 7 4 13 -7 18 -31 4 -20 10 -41 13
-47 4 -5 8 -19 9 -30 2 -11 8 -21 13 -23 15 -5 12 -22 -3 -22 -8 0 -19 10 -26
23 -10 20 -11 19 -4 -8 3 -16 7 -42 7 -56 1 -16 6 -25 12 -22 7 2 10 14 8 26
-4 21 -4 21 5 2 5 -11 5 -27 1 -34 -5 -8 -4 -26 1 -39 5 -13 7 -28 4 -32 -3
-5 4 -14 15 -20 11 -6 20 -20 20 -32 0 -16 3 -19 11 -11 9 9 6 20 -10 46 -25
40 -27 54 -6 37 8 -7 13 -16 10 -20 -3 -5 -1 -11 5 -15 9 -6 40 -69 40 -82 0
-3 -8 1 -17 8 -10 7 -5 -1 11 -19 16 -17 26 -35 23 -39 -4 -3 -7 0 -7 7 0 7
-2 11 -5 8 -4 -3 3 -21 13 -39 10 -19 17 -40 15 -46 -3 -7 0 -13 6 -13 6 0 8
-6 5 -14 -3 -7 1 -39 10 -71 8 -31 12 -63 9 -71 -3 -8 0 -14 7 -14 6 0 8 -4 5
-10 -3 -5 -1 -20 6 -32 9 -16 9 -23 1 -26 -8 -2 -7 -9 4 -19 8 -9 13 -22 10
-29 -3 -8 0 -13 7 -11 7 1 11 -7 9 -20 -2 -14 2 -23 10 -23 9 0 9 -3 -2 -10
-10 -7 -11 -10 -2 -10 8 0 10 -8 6 -24 -4 -16 -1 -25 10 -29 9 -4 16 -11 16
-17 0 -6 -6 -8 -12 -4 -7 4 -5 -2 5 -13 9 -11 17 -24 17 -29 0 -5 -5 -2 -10 6
-8 13 -10 12 -10 -2 0 -10 5 -18 11 -18 5 0 7 -5 3 -12 -5 -8 -2 -9 9 -5 24 9
21 -9 -4 -26 -20 -14 -20 -15 8 -37 15 -12 22 -19 16 -15 -18 9 -16 -3 3 -23
11 -10 13 -17 6 -20 -6 -2 3 -17 19 -33 22 -22 30 -37 27 -54 -3 -13 -1 -23 4
-22 14 3 36 -69 27 -85 -5 -9 1 -24 16 -43 21 -23 24 -35 19 -69 -4 -27 -2
-36 4 -28 13 19 23 -19 10 -42 -6 -11 -5 -16 5 -16 8 0 17 -9 20 -20 3 -11 1
-18 -4 -14 -11 6 -6 -46 6 -65 5 -10 4 -12 -4 -7 -6 4 -2 -9 9 -29 24 -43 25
-57 3 -53 -10 2 -25 27 -38 66 -12 34 -25 59 -30 55 -4 -5 -5 -2 -1 5 9 15
-12 82 -25 82 -6 0 -5 -9 1 -21 7 -11 10 -22 8 -25 -2 -2 -21 27 -41 65 -24
45 -32 68 -23 68 7 0 13 -7 12 -16 0 -9 5 -15 12 -13 6 1 12 -7 12 -18 0 -11
5 -20 10 -20 6 0 10 1 10 3 0 7 -91 262 -95 266 -9 8 -5 -35 4 -45 5 -5 17
-34 26 -64 10 -30 20 -62 23 -70 4 -11 -1 -10 -16 4 -12 11 -22 25 -22 32 0 8
-6 11 -17 7 -10 -4 -14 -2 -10 4 4 6 1 14 -5 16 -10 4 -9 8 2 16 13 9 13 11
-2 11 -9 0 -20 5 -24 12 -5 7 -2 9 7 4 8 -4 3 1 -10 12 -13 10 -21 24 -17 30
3 5 -1 13 -10 16 -9 4 -14 9 -11 13 4 3 -5 19 -18 35 -31 37 -31 51 0 68 14 7
25 17 25 22 0 5 -11 1 -25 -8 -24 -16 -27 -15 -45 1 -11 10 -17 21 -15 25 3 4
-3 18 -13 31 -25 33 -33 57 -20 61 7 3 8 10 4 17 -6 10 -10 10 -16 2 -7 -12
-120 178 -120 203 0 7 -16 28 -35 47 -22 22 -36 47 -40 71 -4 21 -10 36 -14
34 -3 -3 -11 11 -17 30 -6 19 -8 34 -3 34 4 0 9 -6 11 -12 3 -9 9 -8 22 5 10
9 22 17 28 17 6 0 8 11 6 25 -3 14 -3 25 -1 25 8 0 33 -29 33 -38 0 -6 5 -12
11 -14 9 -3 8 -11 -1 -28 -12 -22 -12 -24 2 -12 14 11 31 -18 138 -233 67
-135 125 -243 130 -240 9 5 4 37 -10 70 -5 11 -13 43 -19 70 -5 28 -15 64 -22
80 -6 17 -13 37 -14 45 -6 40 -75 247 -106 315 -4 11 -31 78 -59 149 -28 70
-55 136 -60 145 -14 28 -78 165 -89 191 -6 14 -15 32 -20 40 -24 41 -71 148
-71 162 0 46 -10 47 -78 5 -73 -44 -203 -106 -297 -142 -33 -13 -85 -33 -115
-45 -40 -15 -51 -17 -40 -6 13 13 79 42 194 86 16 6 26 13 23 16 -3 3 -19 -2
-36 -10 -35 -19 -55 -21 -45 -5 5 8 1 8 -14 0 -34 -18 -38 -12 -9 14 15 14 34
41 42 60 7 19 19 35 26 35 6 0 8 7 5 16 -3 8 -2 12 4 9 6 -3 10 5 10 18 0 30
10 40 27 26 10 -9 13 -8 13 1 0 9 6 8 19 -4 19 -17 20 -17 19 12 -1 21 -5 29
-15 25 -18 -7 -65 25 -57 39 4 7 9 6 14 -2 4 -7 13 -9 19 -6 6 4 11 2 11 -3 0
-6 9 -11 20 -11 11 0 20 -7 20 -16 0 -8 4 -13 8 -10 5 3 21 -1 35 -9 15 -8 29
-14 30 -14 1 0 10 -3 19 -6 10 -4 31 0 48 8 31 16 39 10 18 -12 -11 -10 -10
-11 5 -6 9 4 17 13 17 21 0 8 5 14 11 14 5 0 8 -4 5 -9 -3 -5 3 -11 13 -14 17
-4 20 3 25 52 8 77 4 431 -5 431 -11 0 -41 96 -52 171 -2 8 -6 20 -11 27 -4 7
-2 19 5 28 10 12 9 13 -7 8 -13 -4 -15 -3 -6 3 7 6 12 14 11 19 -4 22 2 45 10
39 5 -3 13 0 16 6 4 5 10 8 13 4 4 -3 0 -10 -8 -15z m-4874 -62 c4 4 2 -1 -5
-10 -7 -10 -21 -18 -30 -19 -10 0 -12 -2 -3 -6 6 -2 9 -10 5 -16 -3 -7 3 -4
14 6 28 24 35 9 16 -31 -20 -42 -9 -53 18 -19 19 25 48 39 34 17 -3 -5 -1 -10
5 -10 7 0 6 -5 -3 -14 -8 -8 -24 -40 -37 -70 -12 -31 -26 -56 -29 -56 -15 0
-20 13 -12 29 14 27 22 71 13 71 -5 0 -17 -18 -27 -40 -23 -51 -31 -56 -46
-29 -9 18 -9 21 3 16 10 -3 14 1 12 16 -1 12 -3 27 -3 32 -2 17 -31 -28 -31
-48 0 -10 -4 -16 -9 -13 -7 5 -8 23 -2 44 1 1 0 4 -1 5 -2 2 3 11 11 20 7 10
9 17 4 17 -5 0 -15 -12 -22 -26 -8 -18 -16 -24 -28 -19 -10 3 -14 3 -11 -1 4
-3 0 -13 -8 -22 -24 -23 -36 -2 -23 39 18 56 58 139 67 139 17 0 21 -13 11
-34 -9 -20 -8 -20 7 1 13 18 20 20 35 12 15 -7 19 -6 19 5 0 18 21 26 36 15 6
-5 15 -5 20 -1z m-877 -262 c-5 -54 -7 -101 -5 -104 5 -4 8 7 22 77 4 20 7 22
15 10 7 -11 9 -11 9 4 0 10 7 20 15 23 8 4 12 10 9 15 -3 5 -1 9 5 9 24 0 16
-46 -27 -153 -20 -50 -26 -40 -13 24 16 75 6 72 -12 -3 -8 -35 -17 -70 -19
-78 -3 -8 -3 -12 -1 -7 3 4 10 7 16 7 7 -1 2 -9 -10 -19 -13 -11 -23 -24 -23
-30 0 -22 -44 -83 -71 -97 -17 -8 -29 -10 -29 -4 0 5 6 10 13 10 39 0 61 70
86 270 15 112 22 153 26 149 1 -2 -1 -49 -6 -103z m3444 -217 l2 -94 165 -42
c143 -36 184 -51 307 -114 78 -39 155 -86 171 -103 38 -40 94 -145 85 -160 -3
-6 -3 -8 2 -4 5 5 19 -8 33 -28 31 -47 38 -131 10 -139 -10 -4 -18 -12 -18
-18 0 -6 -7 -1 -16 11 -8 12 -12 28 -9 35 4 6 0 4 -8 -5 -8 -10 -18 -14 -22
-10 -5 4 -5 -2 -1 -12 5 -16 4 -17 -8 -7 -16 14 -40 6 -31 -10 4 -5 2 -9 -4
-9 -5 0 -9 9 -8 19 0 11 5 17 9 15 4 -3 8 -3 8 0 0 2 3 13 6 23 4 14 4 15 -4
4 -5 -7 -28 -15 -50 -17 -35 -3 -40 -1 -35 14 3 9 4 15 2 12 -35 -41 -43 -54
-26 -41 15 12 17 11 17 -8 0 -25 -8 -27 -67 -18 -24 4 -33 1 -33 -9 0 -8 -4
-14 -10 -14 -5 0 -10 -5 -10 -11 0 -8 5 -8 15 1 12 10 18 10 32 -1 9 -8 18
-13 19 -12 2 1 19 -4 38 -12 20 -8 40 -15 47 -15 6 0 8 -7 5 -16 -4 -12 -1
-14 14 -9 23 7 28 -13 8 -33 -18 -18 -1 -27 19 -10 15 13 22 13 43 2 31 -17
31 -17 -58 -19 -66 -2 -75 0 -88 20 l-15 23 -29 -30 c-23 -22 -35 -28 -52 -23
-30 9 -67 44 -63 59 2 6 6 26 9 44 5 27 2 32 -14 32 -19 0 -20 -13 -4 -54 5
-14 4 -17 -4 -12 -7 4 -12 3 -12 -2 0 -5 -17 -7 -37 -5 -36 4 -37 3 -18 -12
19 -14 19 -15 1 -8 -13 4 -17 3 -12 -5 4 -7 1 -12 -8 -12 -24 0 -19 -16 5 -17
12 -1 27 -10 34 -20 10 -13 13 -14 12 -3 -2 8 -7 22 -12 30 -8 13 -7 13 8 1
12 -10 21 -10 30 -3 8 7 18 7 27 2 10 -6 11 -10 3 -10 -7 0 -10 -6 -7 -14 7
-19 -26 -29 -70 -21 -22 5 -33 12 -30 20 4 9 -4 11 -25 9 -17 -2 -31 1 -31 6
0 12 -37 13 -44 2 -3 -5 0 -9 7 -9 13 -1 191 -80 241 -106 l29 -16 -30 1 c-17
1 -36 -3 -43 -7 -9 -5 -11 -4 -6 3 10 17 -5 15 -25 -4 -10 -9 -15 -22 -13 -29
3 -7 -2 -15 -10 -18 -11 -4 -13 -1 -9 10 5 12 3 14 -7 8 -10 -6 -12 -4 -7 9 4
9 3 14 -2 11 -5 -3 -16 4 -24 15 -12 18 -15 18 -20 5 -4 -8 -16 -15 -28 -15
-16 0 -20 -5 -16 -20 3 -11 0 -20 -6 -20 -7 0 -5 -5 3 -10 8 -5 11 -10 7 -10
-4 0 -2 -6 5 -14 7 -8 16 -12 21 -9 9 5 9 0 1 -21 -3 -9 -12 -16 -19 -16 -8 0
-27 -11 -43 -25 -17 -14 -35 -25 -41 -25 -17 0 -2 25 22 35 15 7 22 19 22 38
1 15 -3 27 -8 27 -4 0 -5 5 -2 10 3 6 1 10 -5 10 -6 0 -8 5 -5 10 3 6 -1 10
-9 10 -9 0 -16 4 -16 9 0 5 -8 8 -17 6 -10 -1 -17 -8 -16 -14 2 -6 -3 -11 -11
-11 -17 0 -16 48 2 55 6 2 12 9 12 15 0 6 -7 4 -16 -4 -23 -24 -37 -19 -32 9
3 14 1 25 -4 25 -5 0 -7 4 -4 9 6 9 -21 24 -32 17 -4 -2 -8 6 -8 19 -1 14 5
26 15 30 12 5 13 3 4 -6 -9 -9 -8 -15 3 -27 8 -8 18 -11 22 -8 3 4 0 11 -7 15
-7 5 -10 14 -7 20 11 18 -25 26 -38 9 -10 -14 -15 -14 -46 3 -19 11 -26 17
-15 14 16 -4 21 0 22 16 2 17 -1 18 -13 8 -12 -10 -13 -9 -8 6 4 10 1 20 -7
25 -7 5 -10 12 -6 16 3 4 15 1 24 -7 14 -11 14 -9 -2 9 -18 22 -20 22 -32 6
-12 -16 -13 -16 -13 -1 0 9 4 17 10 17 5 0 7 7 4 15 -4 8 -1 15 5 15 6 0 11
-7 11 -15 0 -17 9 -19 30 -5 12 8 12 10 1 10 -10 0 -11 3 -2 13 6 8 8 17 4 20
-3 4 -1 7 5 7 7 0 11 11 10 24 -2 16 -7 22 -17 18 -9 -3 -12 -1 -7 6 4 7 1 12
-9 12 -12 0 -15 -6 -10 -22 5 -18 4 -20 -4 -8 -9 13 -13 13 -28 -4 -14 -14
-15 -20 -5 -23 10 -4 8 -9 -7 -20 -22 -15 -30 -39 -8 -27 6 4 8 3 4 -1 -4 -5
-14 -10 -21 -11 -11 -2 -12 5 -5 29 11 40 11 40 -2 32 -6 -4 -9 4 -7 22 2 22
-1 27 -14 25 -16 -3 -17 0 -6 23 9 19 9 28 0 37 -20 20 -14 64 12 83 18 14 23
26 21 53 -2 18 -11 42 -20 52 -21 23 -26 84 -10 107 14 19 29 14 93 -27 60
-41 32 -14 -48 44 -44 33 -78 61 -76 64 3 2 11 0 18 -4 20 -13 43 -15 31 -3
-12 12 -5 59 8 59 5 0 8 4 7 9 -2 5 6 17 17 26 11 9 14 14 8 10 -9 -4 -11 -1
-7 9 3 9 10 14 14 11 9 -5 4 41 -6 56 -2 4 0 10 6 14 5 3 10 17 10 30 0 26 16
43 22 24 2 -7 10 7 17 31 7 23 14 40 17 37 2 -2 5 -46 7 -98z m932 10 c-8 -12
-3 -11 30 1 23 9 28 7 32 -9 3 -11 13 -19 23 -18 10 1 16 5 14 9 -7 11 59 10
89 -1 13 -5 32 -18 42 -28 18 -17 18 -17 12 0 -10 26 20 34 38 11 8 -11 14
-14 15 -6 0 17 20 15 20 -3 0 -8 5 -15 11 -15 6 0 8 -9 4 -21 -5 -15 -4 -19 4
-15 6 4 11 2 11 -4 0 -6 5 -8 10 -5 16 10 12 -7 -7 -27 -9 -10 -22 -18 -28
-18 -7 0 -15 -7 -19 -15 -4 -12 -20 -7 -86 25 -44 22 -92 45 -107 51 -37 13
-142 82 -143 92 0 5 5 5 10 2 6 -3 10 -1 10 5 0 6 5 8 10 5 6 -4 8 -11 5 -16z
m-3340 -138 c155 -67 308 -141 302 -147 -3 -3 -20 2 -39 11 l-33 16 33 -29
c35 -31 40 -42 17 -42 -8 0 -15 5 -15 10 0 6 -9 10 -20 10 -11 0 -20 4 -20 9
0 5 -8 11 -17 14 -10 3 -31 14 -46 24 -24 16 -29 16 -38 3 -10 -13 -10 -13 -6
0 3 9 -2 25 -10 35 -15 19 -15 19 -10 -4 6 -24 5 -24 -23 5 -50 49 -69 64 -86
64 -16 0 20 -33 60 -56 11 -6 21 -15 24 -22 4 -13 -59 7 -70 23 -4 6 -8 7 -8
2 0 -4 -13 -1 -30 8 -16 9 -30 11 -30 6 0 -5 48 -28 108 -51 158 -62 242 -98
242 -105 0 -2 -13 0 -29 5 -16 4 -32 6 -34 3 -3 -2 -36 11 -73 30 -38 19 -112
51 -164 72 -98 39 -139 63 -87 51 19 -4 26 -3 22 4 -3 5 -14 10 -24 10 -10 0
-21 3 -25 8 -4 4 -12 8 -17 8 -5 1 -13 2 -18 3 -5 0 -7 11 -3 23 3 14 1 19 -6
14 -8 -5 -10 -2 -6 8 3 9 11 16 17 16 6 0 2 7 -9 15 -29 22 55 -5 171 -54z
m3466 2 c4 -4 -4 -9 -19 -10 -14 0 -28 -6 -30 -12 -2 -6 -8 -8 -14 -5 -5 4 -3
-5 7 -19 13 -20 23 -25 48 -22 46 4 87 16 87 24 0 4 7 8 15 8 21 0 19 -4 -12
-33 l-28 -24 30 12 c17 7 33 17 36 22 9 11 42 -1 35 -13 -3 -5 1 -12 10 -15
14 -5 14 -9 3 -23 -48 -58 -197 -64 -301 -13 -68 34 -107 59 -93 61 40 5 60 2
58 -8 -1 -6 3 -13 10 -16 7 -3 13 5 13 20 1 16 -2 23 -11 19 -16 -6 -53 20
-42 30 4 4 7 1 7 -7 0 -11 2 -11 10 1 6 10 10 11 10 3 0 -7 6 -13 14 -13 8 0
16 6 19 13 2 6 4 -3 5 -22 0 -18 4 -36 8 -40 4 -3 5 6 2 21 -3 15 -1 33 3 40
5 7 3 16 -4 21 -7 5 -1 6 16 3 17 -4 27 -2 27 5 0 13 67 6 81 -8z m-8202 -128
c17 -19 38 -49 47 -66 18 -36 76 -211 94 -284 6 -27 16 -55 22 -62 7 -9 7 -13
0 -13 -15 0 -43 45 -82 130 -36 82 -125 224 -160 255 -12 11 -37 20 -56 20
-47 2 -44 17 7 37 68 26 93 23 128 -17z m10221 -3 c8 -2 21 -8 28 -14 10 -8 9
-14 -5 -25 -17 -14 -17 -14 2 -10 22 4 35 -6 54 -41 7 -13 17 -19 23 -16 7 4
8 3 4 -4 -4 -7 -2 -12 3 -12 6 0 10 -3 9 -7 -3 -13 24 -63 32 -58 4 2 7 -2 7
-8 0 -7 13 -40 28 -73 16 -32 30 -63 31 -69 6 -32 10 -41 20 -50 7 -5 15 -21
19 -35 6 -24 5 -24 -9 -6 -9 11 -16 15 -16 9 0 -7 4 -14 10 -18 5 -3 7 -13 4
-23 -4 -9 2 -5 13 10 l19 27 17 -40 c19 -43 22 -73 7 -64 -5 3 -7 12 -4 19 3
8 1 17 -5 21 -6 3 -9 0 -5 -8 3 -8 1 -18 -5 -22 -18 -11 -12 -51 11 -71 12
-10 18 -13 14 -6 -4 6 -2 12 3 12 6 0 11 -8 11 -17 0 -14 2 -15 9 -5 6 10 10
9 14 -7 3 -12 0 -21 -6 -21 -7 0 -6 -4 2 -9 21 -13 42 -88 27 -94 -6 -3 -12 8
-13 27 -2 17 -9 36 -18 42 -8 6 -15 16 -15 23 0 6 -4 11 -9 11 -5 0 -7 -9 -4
-20 3 -11 10 -20 15 -20 6 0 8 -9 5 -20 -3 -11 -1 -23 5 -26 5 -3 7 -12 4 -20
-3 -8 -1 -14 5 -14 6 0 9 -6 6 -14 -3 -8 0 -17 8 -20 20 -7 6 -46 -16 -46 -21
0 -22 2 -69 135 -17 50 -35 99 -40 110 -4 11 -18 47 -31 80 -27 72 -76 174
-94 195 -7 8 -25 40 -41 70 -15 30 -34 63 -42 72 -8 9 -12 23 -9 30 5 17 -32
70 -44 63 -5 -4 -9 -1 -9 4 0 6 -9 11 -20 11 -11 0 -20 5 -20 11 0 6 -7 9 -15
5 -8 -3 -15 -2 -15 3 0 11 33 20 68 17 27 -2 28 -1 16 23 -7 13 -10 29 -6 35
3 6 8 2 12 -9 3 -11 12 -21 20 -23z m6180 -82 c21 -16 25 -27 25 -68 0 -49
-23 -92 -49 -92 -6 0 -4 5 4 10 17 11 10 13 -14 4 -9 -3 -14 -9 -11 -14 2 -4
-13 -2 -35 4 -36 9 -46 21 -41 50 1 4 -2 13 -7 20 -4 6 -9 23 -11 38 -2 22 5
32 31 48 41 25 76 25 108 0z m-16489 -99 c6 10 9 10 9 2 0 -7 5 -13 11 -13 15
0 39 -26 32 -34 -4 -3 0 -6 8 -6 8 0 21 -10 29 -22 16 -23 33 -39 65 -62 19
-14 19 -15 -8 -21 -15 -4 -27 -11 -27 -15 0 -12 26 -30 33 -23 4 3 7 -2 7 -13
0 -10 7 -28 15 -38 23 -30 18 -55 -12 -67 -36 -13 -67 1 -88 41 -8 16 -13 30
-9 30 4 0 1 7 -7 16 -11 14 -14 13 -29 -6 -18 -24 -20 -21 -21 34 0 10 -11 33
-24 51 -14 17 -22 35 -17 40 4 5 2 5 -4 2 -11 -6 -26 14 -28 36 -1 4 -7 12
-15 16 -10 6 -10 10 -1 16 6 4 9 14 6 22 -4 10 -1 13 13 8 11 -3 24 1 32 11
13 16 14 16 18 -1 2 -14 5 -15 12 -4z m5668 -99 c127 -66 273 -159 234 -151
-4 1 -20 -3 -35 -9 -19 -8 -26 -16 -22 -27 12 -31 -8 -23 -261 115 -82 45 -87
51 -26 35 29 -7 60 -11 69 -8 9 4 13 2 9 -3 -3 -6 19 -22 49 -37 29 -15 54
-22 54 -17 0 6 -10 15 -22 20 -67 30 -160 102 -165 128 -3 13 19 4 116 -46z
m11829 3 c25 -21 30 -32 28 -65 -1 -22 -6 -43 -11 -47 -4 -5 -5 -2 -1 5 10 17
-9 15 -24 -4 -26 -31 -85 -51 -96 -32 -4 7 -9 6 -14 -3 -13 -21 -52 50 -46 84
7 33 35 74 56 80 41 12 80 6 108 -18z m-666 -112 c25 -30 27 -49 7 -64 -10 -7
-19 -19 -19 -26 0 -13 -5 -14 -52 -16 -13 -1 -26 -5 -29 -9 -11 -16 -38 4 -44
33 -9 42 3 69 38 84 44 19 81 18 99 -2z m-11737 -118 c-26 -89 -65 -195 -89
-239 -8 -16 -13 -33 -11 -36 7 -12 -42 -3 -74 13 -24 12 -31 12 -35 1 -3 -8 0
-11 10 -7 7 3 14 0 14 -6 0 -19 -32 -12 -37 9 -3 11 -9 20 -14 20 -5 0 -9 4
-9 9 0 4 17 7 38 5 41 -3 50 7 131 153 48 86 95 163 98 160 1 -2 -9 -38 -22
-82z m11364 -187 c13 7 12 -30 -2 -41 -16 -13 -7 -57 12 -57 5 0 19 -15 30
-34 l21 -34 -22 -43 c-13 -24 -30 -49 -38 -56 -16 -14 -44 -18 -36 -5 2 4 -18
7 -45 7 -45 0 -48 -1 -43 -22 9 -35 -3 -70 -28 -78 -20 -6 -19 -8 14 -14 21
-5 46 -16 57 -25 18 -16 19 -15 25 19 7 37 18 42 62 25 21 -8 29 -8 36 2 8 13
10 8 12 -22 1 -8 8 -15 16 -15 8 -1 14 -6 12 -13 -1 -9 9 -10 37 -6 55 9 90
-2 103 -31 14 -32 -7 -66 -56 -89 -29 -14 -40 -15 -58 -5 -35 19 -48 36 -48
63 0 29 -2 30 -47 17 -23 -7 -37 -5 -50 5 -23 17 -63 18 -63 1 0 -15 -28 -40
-69 -61 -23 -12 -36 -13 -61 -5 -28 10 -30 14 -24 43 3 17 17 45 30 62 26 35
22 46 -11 38 -16 -4 -27 1 -39 17 -18 26 -21 43 -6 34 6 -4 8 5 4 22 -8 41 21
73 73 80 35 5 41 8 34 21 -6 11 -3 29 10 54 17 33 17 38 4 52 -25 25 -17 44
30 67 25 13 53 31 62 41 16 17 17 17 36 1 10 -10 22 -17 26 -15z m-6989 -159
c0 -5 4 -8 9 -4 9 5 22 -20 20 -39 0 -5 4 -12 9 -15 12 -7 72 -133 72 -150 0
-6 4 -11 8 -11 5 0 16 -16 26 -36 15 -33 15 -38 1 -54 -14 -16 -14 -18 0 -24
9 -3 20 -4 24 -1 5 2 13 -7 19 -21 11 -22 10 -24 -6 -15 -14 7 -21 5 -30 -10
-7 -10 -21 -19 -31 -19 -18 0 -19 -2 -5 -27 7 -16 14 -33 14 -38 0 -6 9 -18
20 -28 25 -21 25 -34 3 -40 -15 -4 -14 -5 3 -6 21 -1 59 -31 67 -53 3 -9 11
-6 26 11 26 30 27 35 1 19 -15 -10 -22 -10 -32 0 -15 15 -10 20 27 24 27 3 33
-2 53 -42 12 -25 21 -53 18 -63 -2 -9 -1 -15 3 -13 8 6 71 -108 71 -129 0 -7
-3 -15 -7 -18 -5 -2 -3 -2 4 -1 21 5 24 -15 4 -25 -15 -8 -25 -6 -47 11 l-29
22 25 -27 c19 -22 30 -26 51 -22 29 7 25 13 98 -148 28 -61 29 -70 16 -83 -12
-13 -13 -19 -3 -37 7 -12 12 -26 13 -30 0 -4 7 -12 15 -17 8 -5 11 -10 5 -11
-5 0 1 -4 15 -8 17 -5 25 -14 24 -29 0 -12 2 -20 5 -17 6 7 61 -128 112 -279
26 -77 37 -122 31 -128 -12 -12 -22 2 -90 134 -28 53 -48 99 -44 102 3 3 1 6
-5 6 -6 0 -16 12 -22 28 -6 15 -23 47 -37 72 -32 55 -98 179 -174 327 -38 74
-54 115 -48 121 7 7 4 10 -7 9 -13 -2 -24 13 -38 48 -12 28 -24 52 -28 55 -12
10 -39 69 -39 88 0 11 -7 22 -15 25 -15 6 -64 96 -71 131 -2 11 -8 22 -14 24
-17 6 -11 22 8 22 15 1 15 2 -3 13 -11 6 -24 12 -30 12 -5 0 -11 9 -14 20 -2
11 -12 32 -22 47 -11 14 -19 31 -19 37 0 6 -4 11 -8 11 -5 0 -24 30 -43 68
-19 37 -38 70 -43 73 -5 4 -6 14 -3 22 3 9 2 17 -2 19 -5 2 -11 14 -15 28 l-7
25 20 -24 c21 -23 21 -23 21 -2 0 27 22 25 65 -5 51 -35 52 -35 48 -10 -4 18
-10 22 -24 19 -14 -4 -18 -1 -13 10 6 16 -33 50 -48 41 -15 -9 -8 9 10 27 20
20 32 24 32 8z m7766 -51 c4 -13 -1 -24 -13 -34 -14 -11 -15 -13 -2 -8 10 3
19 2 22 -3 6 -10 -21 -49 -29 -41 -3 3 -16 -5 -30 -19 -14 -14 -29 -21 -37
-17 -6 4 0 -6 16 -23 31 -34 34 -59 9 -90 -20 -26 -66 -32 -100 -14 -20 11
-27 10 -43 -5 -24 -22 -65 -28 -47 -7 6 7 18 12 27 11 16 -3 17 0 6 42 -8 32
45 90 82 90 18 0 24 4 20 14 -29 74 -13 115 49 125 48 9 61 5 70 -21z m-14929
-2 c-3 -8 1 -17 10 -20 12 -5 14 -1 10 16 -6 23 -6 22 15 -2 11 -14 25 -38 30
-53 6 -16 16 -26 22 -24 7 3 18 -4 24 -14 7 -10 20 -19 29 -19 19 0 53 -28 53
-43 0 -17 -42 -57 -59 -57 -9 0 -2 11 19 30 19 17 26 27 14 21 -11 -5 -27 -17
-34 -26 -7 -9 -21 -13 -31 -10 -11 4 -19 2 -19 -4 0 -6 3 -10 8 -10 18 3 32
-2 32 -12 0 -6 -10 -9 -22 -7 -26 3 -64 -35 -52 -53 4 -8 3 -9 -5 -5 -8 5 -16
-3 -24 -23 -6 -17 -16 -30 -21 -28 -17 6 -17 24 -1 40 8 9 15 20 15 26 0 6 5
11 10 11 18 0 -7 153 -35 210 -7 14 -10 31 -7 39 3 9 0 11 -9 7 -8 -4 -5 0 5
8 24 20 30 20 23 2z m2579 -27 c12 -10 12 -14 2 -20 -10 -7 -10 -9 0 -9 6 0
12 -5 12 -11 0 -6 -6 -7 -12 -2 -8 4 -7 -2 3 -17 8 -14 19 -33 22 -44 6 -15 3
-18 -18 -14 -22 5 -25 2 -19 -15 4 -13 2 -17 -5 -13 -6 4 -11 0 -11 -9 0 -14
-7 -16 -41 -10 -29 5 -39 4 -35 -4 5 -7 -2 -7 -24 0 -16 6 -30 18 -30 26 0 8
-4 11 -10 8 -5 -3 -18 -1 -27 5 -17 11 -17 11 0 6 18 -6 25 10 7 16 -14 4 14
84 29 81 6 -2 11 2 11 7 0 6 16 10 36 10 21 0 33 4 29 10 -19 30 45 29 81 -1z
m4313 -105 c43 -17 84 -72 138 -184 64 -132 82 -340 42 -487 -12 -43 -27 -85
-35 -94 -8 -8 -14 -19 -14 -23 0 -5 -19 -25 -42 -44 -24 -20 -63 -56 -88 -81
-66 -64 -77 -70 -180 -87 -8 -2 -35 -8 -59 -15 -34 -9 -45 -9 -51 1 -12 20
-19 0 -46 -126 -25 -121 -36 -147 -60 -137 -19 7 -18 78 1 178 18 94 15 102
-73 214 -83 105 -95 125 -112 176 -7 22 -16 43 -21 48 -5 4 -7 5 -5 1 2 -3 0
-20 -5 -37 -6 -22 -5 -33 4 -39 17 -11 -5 -30 -27 -22 -13 5 -14 9 -5 20 9 11
7 14 -12 15 -17 1 -19 3 -7 6 10 2 21 17 24 31 4 15 14 35 22 45 8 9 10 17 5
17 -6 0 -13 -7 -17 -15 -8 -22 -36 -18 -36 5 0 22 32 44 46 30 5 -5 9 7 9 31
1 35 -1 38 -20 33 -19 -6 -19 -6 2 12 13 11 26 40 32 72 17 84 55 150 138 245
94 107 209 192 293 218 43 13 118 10 159 -7z m-8637 -178 c-25 -42 -62 -84
-126 -145 -27 -25 -58 -54 -68 -63 -10 -10 -18 -25 -18 -33 0 -13 6 -11 29 6
38 28 108 42 115 22 3 -8 10 -11 16 -8 16 10 12 -21 -5 -35 -9 -7 -25 -10 -42
-5 -24 6 -25 5 -12 -11 8 -10 9 -15 2 -11 -7 5 -16 -1 -22 -12 -13 -24 -14
-44 -2 -37 4 3 7 -5 6 -17 -2 -18 2 -23 23 -22 14 0 26 -6 28 -13 1 -7 0 -8
-3 -2 -8 17 -23 11 -23 -11 0 -13 4 -18 12 -13 7 4 8 3 4 -4 -5 -8 -13 -9 -25
-2 -10 5 -22 6 -26 2 -5 -4 -6 -2 -2 3 3 6 -2 16 -11 22 -15 9 -17 5 -15 -36
2 -25 0 -40 -3 -33 -3 6 -12 12 -19 12 -7 0 -16 -6 -18 -12 -3 -8 -6 -6 -6 5
-1 9 -4 17 -8 17 -5 0 -17 12 -27 27 -11 14 -13 23 -6 18 9 -5 11 -4 6 3 -4 7
-13 12 -21 12 -8 0 -11 7 -8 20 3 11 10 20 15 20 5 0 6 5 2 11 -3 6 -15 9 -25
6 -12 -3 -19 0 -19 8 0 8 -6 18 -13 22 -7 4 -13 24 -14 43 -1 55 -2 56 -21 33
l-17 -23 0 24 c0 13 2 24 5 24 65 -5 76 2 105 60 16 31 28 60 27 63 -1 4 8 15
20 25 12 11 18 13 14 7 -5 -9 2 -13 26 -13 25 0 29 -3 18 -10 -13 -9 -13 -11
0 -20 8 -5 22 -8 30 -6 40 10 59 19 55 26 -3 5 3 11 12 14 10 3 28 22 41 41
29 45 40 46 14 1z m16826 -36 c17 -17 20 -25 12 -40 -5 -10 -10 -28 -10 -39 0
-12 -3 -20 -7 -19 -5 1 -21 -4 -36 -10 -39 -16 -46 -15 -68 11 -27 32 -24 72
7 96 34 27 74 27 102 1z m-411 -33 c8 -7 17 -38 20 -68 5 -51 5 -53 -12 -39
-15 13 -18 13 -14 1 3 -8 -2 -22 -12 -32 -9 -9 -22 -25 -28 -35 -9 -15 -13
-16 -18 -5 -4 10 -7 10 -13 1 -5 -8 -20 -10 -49 -5 -32 5 -45 13 -56 35 -19
37 -19 54 1 96 31 64 138 94 181 51z m850 -12 c33 -16 63 -54 63 -79 0 -21
-21 -31 -31 -15 -6 10 -9 7 -9 -12 0 -14 -6 -34 -14 -44 -12 -16 -16 -17 -30
-6 -13 11 -17 11 -22 -2 -11 -29 -78 -42 -100 -20 -19 20 -18 89 4 125 9 17
35 39 57 49 49 23 45 22 82 4z m-3386 -121 c-17 -14 -29 -30 -25 -35 3 -5 0
-9 -5 -9 -6 0 -11 -4 -11 -10 0 -5 8 -6 18 -3 15 6 15 5 3 -11 -11 -13 -16
-14 -22 -4 -9 13 -11 8 -13 -22 -1 -8 -8 -15 -16 -15 -14 0 -16 -5 -11 -36 0
-7 11 3 24 22 12 19 27 32 31 31 5 -2 13 2 17 10 7 10 12 10 27 1 13 -7 23 -8
29 -2 6 6 10 4 10 -5 0 -8 -8 -13 -18 -11 -22 4 -54 -29 -43 -46 4 -7 3 -10
-3 -6 -5 3 -17 -7 -27 -24 -9 -16 -21 -29 -26 -29 -4 0 -7 -7 -6 -16 1 -9 -8
-27 -21 -40 -15 -15 -21 -29 -16 -41 6 -16 5 -16 -10 -4 -17 14 -21 10 -17
-23 1 -10 -2 -16 -7 -13 -5 3 -8 -7 -7 -21 1 -15 5 -26 10 -25 5 1 9 -9 9 -22
0 -16 -3 -20 -11 -14 -13 11 -39 -15 -30 -30 4 -5 1 -13 -5 -17 -7 -4 -9 -3
-6 3 3 5 1 10 -6 10 -8 0 -12 -15 -12 -39 0 -22 -4 -42 -9 -45 -5 -4 -6 -1 -1
7 5 9 4 11 -4 6 -16 -11 -2 -28 18 -22 12 5 12 3 -3 -9 -10 -8 -22 -12 -27
-10 -14 9 0 -85 20 -129 10 -25 17 -47 13 -50 -3 -3 -1 -6 5 -6 15 0 33 -47
27 -67 -4 -13 -3 -14 4 -5 7 10 12 8 24 -10 9 -13 32 -39 51 -60 27 -27 33
-39 24 -45 -8 -6 -21 -5 -37 3 -22 12 -21 19 3 15 4 -1 0 10 -9 24 -19 29 -29
34 -15 7 7 -14 6 -19 -4 -19 -8 0 -12 4 -9 9 3 4 0 8 -6 8 -6 0 -8 5 -5 10 3
6 0 10 -9 10 -9 0 -17 15 -21 42 -4 24 -14 52 -21 64 -8 11 -11 24 -7 27 3 4
1 7 -5 7 -7 0 -11 3 -10 8 1 4 -3 18 -9 32 -6 14 -16 41 -22 60 l-11 35 6 -40
c3 -22 7 -51 10 -65 4 -24 4 -24 -5 -3 -17 38 -26 127 -12 119 6 -4 11 -2 11
3 0 6 -5 11 -11 11 -8 0 -9 14 -5 44 6 35 3 49 -11 65 -9 12 -23 21 -30 21
-20 0 -15 54 8 84 12 15 30 26 45 26 14 0 27 7 31 18 17 49 68 149 84 164 10
10 32 39 50 65 37 55 89 113 102 113 5 0 -5 -12 -22 -26z m2880 -9 c47 -17 79
-41 79 -61 0 -19 -38 -5 -45 17 -9 28 -21 23 -20 -8 0 -18 -8 -35 -23 -47 -20
-16 -25 -17 -40 -4 -31 27 -42 30 -36 11 5 -15 3 -15 -10 2 -8 11 -20 26 -27
33 -16 19 -4 41 33 57 41 18 37 18 89 0z m-11023 -57 c-3 -7 -14 -18 -26 -24
-12 -6 -19 -14 -15 -17 3 -4 -4 -7 -16 -7 -12 0 -19 -4 -16 -10 3 -5 1 -10 -6
-10 -6 0 -9 8 -6 20 3 12 1 18 -5 14 -5 -3 -7 -17 -3 -31 4 -18 3 -23 -7 -17
-7 4 -10 4 -6 -1 4 -4 1 -17 -7 -29 -8 -11 -14 -34 -14 -51 1 -27 2 -27 9 9 7
40 24 58 46 49 16 -6 27 -33 14 -33 -6 0 -10 -6 -10 -14 0 -8 -6 -16 -12 -19
-7 -2 -10 -8 -6 -12 13 -14 37 4 52 40 12 27 21 35 40 35 22 0 26 -5 26 -29 0
-15 -9 -40 -21 -55 -11 -15 -18 -33 -16 -41 3 -7 -3 -24 -13 -38 -10 -13 -22
-35 -25 -48 -3 -13 -21 -42 -40 -64 -26 -31 -36 -37 -45 -28 -14 13 -7 55 13
75 15 15 29 46 32 69 1 9 11 27 23 39 12 13 22 27 22 31 0 7 -108 4 -116 -3
-2 -2 3 -15 10 -29 10 -20 10 -27 -1 -37 -10 -10 -13 -10 -13 -1 0 20 -34 -22
-45 -56 -8 -24 -16 -30 -42 -31 -28 -1 -31 1 -23 20 25 63 41 94 64 120 15 16
26 34 26 39 0 6 -6 4 -12 -5 -7 -8 -22 -18 -33 -22 -17 -6 -16 -3 7 21 15 15
30 40 33 55 4 16 11 26 15 23 11 -7 30 19 45 62 12 34 17 38 44 35 17 -1 31 2
31 8 0 5 12 10 26 10 16 0 24 -5 22 -12z m11269 -41 c14 -15 19 -56 9 -79 -5
-10 -21 -24 -36 -32 -24 -11 -33 -12 -54 -1 -13 7 -28 10 -32 7 -4 -4 -4 7 -1
25 3 17 2 33 -3 35 -6 2 0 18 12 36 21 29 27 32 58 27 19 -4 40 -12 47 -18z
m-7066 -68 c-13 -10 -17 -19 -10 -19 7 0 9 -3 6 -7 -8 -7 21 -43 34 -43 4 0 6
12 3 26 -3 16 -1 23 6 19 5 -3 10 -15 10 -25 0 -10 5 -22 10 -25 6 -3 10 -15
10 -26 0 -10 -4 -19 -10 -19 -5 0 -10 9 -10 20 0 11 -7 20 -16 20 -12 0 -11
-6 7 -32 13 -18 26 -35 29 -38 3 -3 5 -9 5 -15 0 -22 38 -84 48 -78 6 4 4 11
-7 18 -9 7 -14 19 -10 29 4 10 0 18 -10 22 -9 3 -14 10 -11 14 3 5 1 11 -5 15
-12 7 -13 25 -2 25 4 0 19 -21 34 -47 14 -27 40 -75 58 -107 18 -33 28 -56 21
-52 -9 6 -9 3 1 -13 7 -12 16 -21 21 -21 4 0 23 -32 42 -71 19 -39 40 -78 46
-85 6 -8 8 -21 5 -30 -5 -14 -9 -14 -22 -3 -20 16 -157 219 -149 219 3 0 -6
12 -20 26 -14 14 -23 30 -20 35 4 5 -1 12 -10 15 -9 4 -14 13 -11 21 3 8 2 12
-3 9 -5 -3 -11 1 -15 9 -3 8 -1 15 5 15 5 0 2 14 -6 31 -9 17 -19 28 -22 25
-3 -3 0 -12 7 -21 7 -9 11 -18 8 -21 -11 -11 -57 83 -51 104 5 21 -12 32 -19
12 -1 -5 -14 9 -26 31 -13 23 -19 38 -13 35 6 -4 11 0 11 10 0 13 3 15 11 7
13 -13 49 -5 49 10 0 6 3 7 8 3 4 -4 -4 -16 -17 -27z m6608 -5 c11 -10 12 -16
2 -28 -9 -11 -9 -16 0 -22 8 -4 9 -3 5 4 -4 7 -2 12 3 12 6 0 11 -7 11 -15 0
-8 -4 -15 -10 -15 -5 0 -7 -7 -4 -15 4 -9 0 -15 -10 -15 -9 0 -13 -6 -10 -14
3 -8 0 -17 -7 -22 -8 -4 -10 -3 -5 4 9 15 1 15 -26 1 -16 -9 -22 -8 -29 2 -5
9 -2 17 9 21 14 7 14 7 -3 5 -14 -2 -19 -10 -18 -24 2 -15 -3 -20 -20 -19 -16
1 -21 7 -19 21 2 11 9 23 15 27 8 5 8 8 2 8 -6 0 -16 -5 -22 -11 -22 -22 -43
-2 -43 40 0 46 7 52 75 67 54 12 82 9 104 -12z m-9255 -34 c8 0 66 32 66 36 0
3 -5 2 -12 -2 -7 -4 -8 -3 -4 4 10 17 26 15 26 -3 0 -9 -13 -24 -30 -33 -17
-9 -30 -25 -30 -36 0 -16 3 -15 21 8 22 28 39 34 39 12 0 -7 6 -19 14 -26 8
-6 12 -18 9 -26 -3 -9 2 -14 13 -15 17 -1 17 -2 2 -6 -10 -2 -18 -8 -18 -13 0
-5 8 -7 18 -4 16 5 16 5 0 -9 -10 -8 -18 -20 -18 -27 0 -10 4 -9 18 2 17 16
42 13 54 -5 4 -6 12 -4 23 6 9 10 20 17 25 17 16 0 23 -22 9 -31 -12 -8 -11
-11 2 -22 9 -7 20 -31 24 -55 6 -40 9 -42 47 -48 22 -4 42 -13 45 -20 3 -8 9
-14 15 -14 5 0 6 5 3 10 -3 6 -2 10 4 10 5 0 13 -5 16 -10 4 -6 13 -2 23 10 9
12 27 22 40 23 25 1 27 8 10 25 -20 20 -1 14 38 -13 20 -14 41 -25 45 -25 10
0 10 2 14 38 3 35 19 46 44 33 11 -7 20 -15 20 -19 -1 -4 -1 -14 0 -22 1 -12
3 -12 11 2 12 20 58 11 73 -14 17 -25 -21 -66 -53 -57 -44 12 -49 10 -70 -31
-21 -41 -53 -54 -64 -25 -3 8 -11 15 -17 15 -7 0 -20 7 -30 16 -10 9 -24 14
-31 12 -7 -3 0 -11 17 -19 20 -10 30 -22 29 -36 0 -18 5 -21 30 -20 21 1 32
-3 34 -14 4 -20 -26 -33 -43 -19 -24 20 -27 -8 -5 -37 18 -25 19 -32 8 -56
-12 -26 -17 -27 -68 -25 -69 4 -75 22 -26 71 40 37 45 51 19 43 -29 -9 -47 8
-39 38 10 40 -10 31 -30 -14 -10 -22 -22 -40 -27 -40 -5 0 -7 -6 -4 -13 4 -12
-26 -41 -44 -42 -16 -1 -39 -37 -43 -67 -4 -38 8 -58 35 -58 11 0 19 -4 19
-10 0 -5 -7 -10 -15 -10 -8 0 -15 -4 -15 -10 0 -5 7 -7 15 -4 9 4 15 0 15 -10
0 -11 -9 -16 -29 -16 -25 0 -28 3 -24 21 4 16 2 20 -8 17 -10 -4 -13 -19 -11
-51 l3 -47 -38 3 c-51 3 -68 14 -52 33 7 8 18 13 25 10 16 -6 26 18 12 32 -6
6 -7 16 -3 22 5 8 10 9 18 1 15 -15 27 -14 27 3 0 22 -67 25 -90 4 -10 -10
-28 -18 -39 -18 -11 0 -21 -5 -23 -12 -2 -6 -10 -8 -17 -4 -8 5 -9 12 -2 20 6
7 6 17 1 26 -6 8 -10 11 -10 7 0 -5 -5 -5 -11 -2 -7 5 -5 11 4 18 18 15 28 55
16 62 -4 3 -5 13 -2 22 5 12 2 15 -10 10 -19 -7 -27 12 -14 34 8 14 3 24 -28
53 -30 29 -34 36 -19 36 18 0 18 2 -2 18 -12 9 -25 27 -29 40 -11 36 -56 74
-86 70 -22 -3 -25 0 -27 26 -2 16 2 32 8 36 7 5 5 17 -7 39 -17 31 -17 33 0
45 14 11 15 15 4 24 -16 13 -22 92 -8 92 15 0 33 -38 25 -52 -4 -6 -1 -9 7 -6
13 4 15 10 18 51 1 12 10 17 31 17 39 0 80 19 81 39 1 9 4 4 6 -11 2 -16 6
-28 7 -28z m-286 -17 c47 -31 80 -100 59 -123 -9 -10 -9 -11 1 -6 6 4 12 3 12
-3 0 -15 -39 -34 -56 -27 -8 3 -13 2 -10 -3 3 -5 -3 -11 -14 -14 -11 -3 -20
-1 -20 4 0 4 -7 6 -15 2 -9 -3 -22 2 -30 13 -10 14 -17 16 -25 8 -15 -15 -59
6 -76 37 -12 24 -8 59 8 59 17 0 78 52 78 66 0 23 43 16 88 -13z m9708 -1 c15
-10 26 -72 13 -72 -6 0 -7 5 -4 10 3 6 4 10 2 10 -3 0 -17 -20 -31 -44 -18
-32 -36 -48 -61 -56 -58 -19 -61 -10 -39 103 8 40 86 72 120 49z m-752 -47
c32 -29 34 -69 5 -93 -12 -9 -27 -22 -34 -29 -7 -6 -28 -15 -47 -18 -29 -6
-39 -3 -57 16 -34 37 -28 82 16 118 45 37 81 39 117 6z m1082 4 c19 -11 34
-26 34 -33 0 -14 -68 -82 -78 -78 -4 2 -16 9 -27 16 -11 8 -39 17 -62 20 -34
6 -40 11 -36 27 3 10 19 30 35 44 37 31 88 33 134 4z m-447 -174 c-1 -10 41
-30 56 -25 6 1 25 4 42 6 28 4 32 2 26 -13 -4 -10 -13 -24 -21 -32 -10 -10
-10 -16 -2 -21 8 -5 7 -10 -4 -19 -18 -15 -33 4 -17 23 8 10 6 17 -8 30 -18
17 -20 16 -27 -6 -4 -13 -8 -25 -9 -28 -2 -15 -22 -35 -35 -35 -8 0 -15 -5
-15 -12 0 -6 -3 -14 -7 -18 -4 -4 0 -18 9 -32 14 -21 14 -27 2 -51 -8 -15 -21
-31 -29 -37 -20 -13 -51 -15 -43 -2 4 6 0 8 -11 4 -9 -4 -14 -3 -11 2 3 5 -6
27 -20 48 -28 40 -29 36 22 70 16 11 14 12 -14 9 -28 -4 -31 -1 -35 24 -3 22
5 41 35 79 36 47 42 50 78 48 22 -1 39 -6 38 -12z m-9708 -25 c10 -6 19 -17
19 -25 0 -8 5 -14 12 -12 6 1 14 -6 16 -15 2 -11 -2 -18 -12 -18 -9 0 -13 -6
-10 -13 3 -8 -2 -19 -10 -26 -19 -16 -56 -22 -56 -10 0 6 -12 8 -29 4 -23 -5
-32 -2 -45 17 -22 31 -20 41 10 77 27 33 67 41 105 21z m7634 -205 c18 -42 45
-204 45 -273 0 -90 -26 -177 -92 -310 l-61 -124 72 -72 c39 -39 71 -75 71 -79
0 -3 -12 -14 -26 -23 -25 -17 -26 -17 -82 39 -54 54 -120 89 -205 111 -15 3
-25 11 -22 16 3 5 -1 7 -9 4 -8 -3 -24 4 -36 16 -15 15 -25 18 -34 11 -29 -24
-81 26 -61 59 6 9 -53 55 -61 47 -3 -3 -6 -14 -7 -25 0 -11 -5 -18 -10 -15 -4
3 -6 11 -3 19 3 8 2 13 -2 13 -21 -3 -24 2 -8 14 17 13 15 17 -32 56 -54 45
-69 68 -46 68 7 0 11 -4 8 -9 -3 -4 1 -15 10 -23 16 -17 30 -20 21 -6 -3 6 4
8 15 6 24 -5 26 8 3 26 -9 8 -14 9 -10 3 3 -6 0 -11 -7 -11 -8 0 -12 6 -9 14
3 7 0 13 -6 13 -6 0 -11 5 -11 11 0 5 6 7 13 3 6 -4 4 1 -5 12 -18 20 -13 37
12 47 9 3 6 6 -9 6 -24 1 -24 1 -5 17 19 15 19 16 -1 10 -19 -6 -19 -5 -2 8
11 8 26 13 35 10 10 -2 2 3 -16 11 -31 14 -36 43 -6 31 19 -7 18 1 -6 31 -11
14 -17 30 -14 35 4 6 10 5 15 -3 5 -8 9 -10 9 -5 0 4 14 -6 32 -22 17 -17 35
-29 40 -26 4 3 8 1 8 -5 0 -13 24 -8 46 9 10 8 15 10 11 3 -4 -6 -2 -15 4 -18
5 -4 8 -14 4 -24 -4 -10 1 -8 15 7 11 12 23 22 26 22 2 0 -1 -10 -7 -22 -11
-23 -11 -23 15 1 14 14 26 19 26 12 0 -9 3 -9 14 1 8 7 12 16 10 20 -5 7 47
68 58 68 5 0 8 -7 8 -16 0 -14 2 -15 17 -3 11 10 14 10 9 2 -4 -7 -3 -13 2
-13 6 0 12 7 16 15 3 8 12 15 21 15 8 0 15 5 15 11 0 5 5 7 12 3 8 -5 9 -2 5
9 -3 9 -3 16 1 16 18 -3 32 2 32 12 0 5 -4 8 -8 5 -5 -3 -9 1 -9 9 0 8 2 13 5
10 6 -6 33 23 36 38 1 6 5 18 9 25 5 6 6 16 3 21 -3 4 1 17 9 27 7 10 11 29 8
42 -4 16 -1 22 12 22 10 0 14 5 10 13 -4 6 6 -1 20 -18 15 -16 33 -43 40 -60z
m-978 -19 c24 -3 30 -9 39 -47 9 -37 9 -47 -4 -62 -34 -39 -102 -53 -102 -21
0 8 -4 14 -9 14 -15 0 -52 66 -46 81 10 23 69 57 82 47 6 -5 24 -11 40 -12z
m158 -197 c5 -8 4 -10 -3 -5 -8 5 -10 -3 -5 -26 8 -41 51 -159 65 -175 9 -11
2 -11 -77 2 -11 2 -29 7 -39 11 -15 6 -18 4 -13 -9 3 -8 1 -18 -6 -20 -9 -3
-9 -7 0 -17 8 -9 9 -19 1 -36 -9 -20 -14 -22 -27 -11 -14 10 -14 10 -3 -5 23
-29 6 -52 -51 -69 -53 -15 -93 -11 -124 14 -35 27 2 141 58 180 21 15 77 16
111 2 15 -6 15 -3 6 29 -15 49 8 100 57 123 36 17 43 27 25 38 -5 3 -6 13 -3
22 5 14 8 12 14 -9 4 -15 10 -32 14 -39z m-6518 -48 c7 -9 18 -28 25 -43 7
-16 20 -28 28 -28 12 0 13 2 1 9 -8 5 -10 14 -6 21 6 9 4 11 -5 5 -8 -5 -11
-3 -8 5 8 24 25 21 32 -5 4 -14 11 -25 16 -25 6 0 10 -7 10 -15 0 -8 7 -15 15
-15 8 0 15 9 15 20 0 22 16 27 23 8 3 -10 7 -10 20 0 21 18 77 11 91 -10 8
-13 6 -24 -10 -45 -19 -25 -27 -28 -84 -29 -39 0 -67 4 -75 13 -8 7 -21 13
-30 13 -9 0 -19 9 -22 19 -4 16 -12 19 -42 16 -25 -3 -48 3 -69 15 -35 22 -40
35 -17 44 8 3 15 14 15 24 0 10 3 22 6 25 11 10 58 -5 71 -22z m7659 -392 c24
-14 34 -28 34 -46 0 -26 -29 -66 -31 -41 0 7 -6 0 -12 -17 -13 -33 -18 -35
-90 -40 -38 -2 -47 0 -43 11 3 7 -2 17 -11 22 -22 13 -9 64 27 102 34 36 77
40 126 9z"/>
<path d="M9354 9387 c-6 -7 -34 -34 -63 -60 -28 -27 -51 -53 -51 -58 0 -14 78
-62 90 -54 5 3 8 11 5 16 -4 5 -2 9 4 9 15 0 23 -18 11 -25 -12 -7 14 -37 48
-54 30 -16 44 -5 71 59 12 28 25 50 30 50 5 0 12 11 15 25 4 15 11 23 17 19 8
-4 8 -1 1 12 -6 11 -27 26 -49 33 -21 8 -41 19 -45 25 -5 8 -11 7 -20 -2 -16
-16 -28 -15 -28 3 0 18 -21 19 -36 2z"/>
<path d="M9065 9290 c-10 -11 -15 -20 -11 -20 4 0 -4 -14 -18 -31 -24 -28 -28
-37 -25 -55 0 -4 -3 -10 -9 -13 -15 -10 -62 -111 -52 -111 6 0 10 -7 10 -16 0
-8 4 -13 9 -10 4 3 6 -6 3 -21 -4 -19 -2 -24 8 -18 10 6 11 4 4 -6 -11 -17
-13 -59 -3 -59 4 0 22 12 41 27 l33 27 -24 -27 c-24 -27 -20 -35 9 -17 9 5 19
5 26 -1 15 -12 45 16 38 35 -4 9 3 14 22 14 27 0 63 34 64 60 0 6 6 12 14 12
7 0 36 26 65 57 47 54 51 56 64 39 8 -11 19 -16 25 -12 7 4 12 4 12 -1 0 -4
11 -13 25 -20 36 -16 23 -1 -27 32 -24 16 -52 36 -63 45 -33 28 -141 85 -127
68 11 -14 9 -20 -10 -40 -13 -14 -30 -27 -39 -30 -8 -3 -23 -21 -32 -40 -11
-22 -17 -27 -17 -14 0 15 -3 16 -15 6 -8 -7 -15 -19 -15 -26 0 -8 -4 -14 -9
-14 -10 0 -7 -32 5 -52 4 -7 3 -8 -4 -4 -8 5 -12 -2 -12 -19 0 -15 4 -24 10
-20 6 3 10 1 10 -4 0 -10 -4 -11 -27 -11 -12 0 -2 126 12 170 6 18 19 50 33
82 14 30 20 34 31 25 12 -10 12 -9 2 11 -14 27 -14 27 -36 2z"/>
<path d="M11160 12125 c1 -5 9 -28 20 -50 11 -22 19 -44 20 -49 0 -6 10 -21
23 -34 12 -14 16 -22 10 -18 -7 4 -13 6 -13 3 0 -11 49 -100 49 -89 1 10 4 10
15 0 8 -7 10 -16 5 -19 -12 -7 -1 -39 13 -39 6 0 7 8 3 18 -5 13 -4 14 6 5 9
-10 10 -15 0 -27 -10 -11 -8 -17 6 -28 10 -7 18 -19 19 -25 2 -30 5 -34 16
-27 7 5 9 2 5 -8 -3 -9 0 -21 6 -27 8 -8 8 -11 0 -11 -6 0 -13 7 -17 15 -4 13
-9 13 -25 3 -11 -7 -18 -15 -16 -18 2 -3 -6 -12 -18 -20 -20 -12 -21 -12 -9 3
11 13 10 15 -8 10 -12 -3 -24 -13 -28 -22 -3 -9 -10 -19 -16 -23 -13 -9 15
-64 31 -61 6 1 14 -5 17 -13 5 -12 1 -14 -15 -9 -19 6 -20 5 -9 -15 8 -16 15
-19 23 -11 18 18 36 -17 23 -45 l-11 -23 -13 22 c-11 19 -12 19 -6 2 3 -11 7
-26 7 -32 0 -7 2 -11 5 -9 2 3 10 -1 17 -7 11 -10 10 -16 -3 -31 -10 -11 -12
-17 -6 -13 6 3 20 0 30 -9 18 -14 18 -15 -3 -9 -14 4 -23 2 -23 -4 0 -6 5 -11
11 -11 6 0 8 -8 5 -18 -4 -10 1 -27 10 -38 8 -10 13 -13 9 -6 -4 7 0 12 10 12
9 0 14 4 10 10 -3 5 -13 7 -23 4 -16 -5 -16 -5 1 9 9 8 17 19 17 26 0 6 5 11
11 11 5 0 7 5 3 12 -5 8 -2 9 10 5 13 -5 16 -3 14 11 -2 9 -10 16 -17 14 -7
-1 -9 2 -6 8 4 6 14 9 22 6 10 -4 14 0 13 17 -3 36 -1 40 15 27 12 -10 13 -16
4 -27 -10 -11 -9 -12 5 -7 17 7 22 34 6 34 -5 0 -10 9 -10 21 0 19 -1 19 -16
5 -19 -19 -31 -21 -15 -3 13 16 5 28 -15 20 -8 -3 -14 0 -14 7 0 6 4 9 9 6 5
-4 12 0 15 6 5 10 7 10 12 1 3 -7 13 -13 22 -13 14 0 15 2 2 10 -12 7 -12 12
4 29 11 12 14 21 8 21 -7 0 -12 -4 -12 -9 0 -5 -7 -11 -15 -15 -13 -4 -12 -1
2 22 9 15 19 29 21 32 1 2 7 -2 12 -10 7 -11 9 -9 7 8 0 12 -4 22 -7 22 -8 0
-68 -68 -64 -72 2 -2 -6 -4 -16 -4 -11 0 -22 6 -24 12 -3 7 6 12 21 12 26 0
43 16 43 41 0 11 -4 9 -16 -5 -8 -10 -12 -12 -8 -4 4 8 16 25 27 38 20 22 20
22 1 38 -19 15 -18 15 3 11 19 -4 17 2 -20 48 -23 29 -46 50 -51 47 -5 -3 -6
0 -2 6 4 7 14 12 22 12 8 0 12 -4 9 -10 -3 -5 1 -10 11 -10 13 0 14 3 4 15 -7
8 -19 15 -26 15 -8 0 -14 5 -14 10 0 14 12 13 35 -4 18 -12 20 -12 20 9 0 20
-4 23 -29 20 -28 -4 -28 -3 -22 39 5 34 3 46 -13 60 -19 17 -20 17 -24 -6 -3
-17 -5 -15 -6 10 -1 23 3 31 11 26 6 -4 8 -3 5 4 -8 12 -25 11 -47 -3 -13 -8
-13 -7 -1 8 7 9 17 14 22 12 4 -3 13 4 19 16 7 12 8 19 3 16 -5 -3 -15 -2 -23
4 -9 5 -10 9 -4 9 7 0 14 7 18 15 5 13 2 13 -19 -1 -34 -22 -71 -11 -95 29
-11 17 -20 28 -20 22z"/>
<path d="M11430 12127 c0 -9 71 -220 79 -234 8 -14 9 -14 14 3 3 10 8 35 11
54 11 63 60 135 108 158 l43 21 -127 1 c-71 0 -128 -1 -128 -3z"/>
<path d="M12656 12122 c-3 -5 4 -18 16 -28 18 -16 20 -17 15 -2 -3 9 0 19 7
21 9 4 12 -6 12 -33 -1 -26 3 -36 12 -33 6 3 12 9 12 14 0 4 7 6 15 3 11 -5
12 -11 4 -25 -9 -18 -8 -19 10 -7 12 7 21 17 21 22 0 4 7 3 15 -4 8 -7 15 -20
15 -30 0 -10 7 -23 15 -30 8 -7 15 -21 15 -31 0 -11 6 -28 13 -39 10 -17 9
-22 -3 -30 -9 -6 -17 -5 -21 2 -7 12 -23 -7 -16 -19 14 -27 124 -215 144 -245
13 -21 27 -37 31 -37 19 3 22 -3 12 -21 -7 -14 -7 -20 0 -20 5 0 10 7 10 15 0
8 6 15 14 15 21 0 30 -19 13 -26 -8 -3 -13 -15 -12 -28 3 -25 102 -217 118
-227 5 -4 7 -11 4 -16 -3 -5 3 -20 13 -33 17 -22 21 -23 34 -10 35 34 48 235
22 320 -19 61 -44 117 -54 124 -5 3 -24 35 -43 72 -19 36 -55 88 -81 115 -27
26 -48 52 -48 55 0 4 -21 28 -47 53 -27 25 -47 49 -45 54 1 5 -2 5 -8 2 -7 -4
-14 2 -17 14 -3 12 -10 21 -15 21 -5 0 -6 5 -2 11 5 8 9 8 14 -1 4 -7 13 -11
19 -9 8 3 5 12 -8 26 -11 11 -18 23 -15 25 2 3 -43 6 -100 7 -58 1 -107 -3
-110 -7z"/>
<path d="M13436 12122 c-3 -4 -3 -17 -1 -28 2 -10 4 -21 4 -24 1 -3 6 2 11 10
8 13 10 12 10 -2 0 -21 16 -24 22 -6 3 8 10 3 17 -11 12 -21 11 -23 -3 -18
-14 5 -15 3 -6 -13 6 -10 18 -23 28 -29 9 -5 13 -13 9 -17 -4 -4 -14 2 -23 14
-8 12 -20 22 -27 22 -6 0 9 -20 33 -45 24 -24 47 -42 51 -39 4 2 11 -1 15 -7
4 -8 3 -9 -4 -5 -17 10 -15 -9 1 -23 8 -6 18 -7 22 -3 5 4 5 2 2 -4 -4 -6 9
-27 28 -47 19 -20 35 -40 35 -45 0 -15 36 -43 45 -35 4 5 5 3 2 -4 -9 -15 32
-80 56 -88 9 -4 17 -16 17 -28 1 -32 71 -109 89 -98 12 8 8 22 -22 82 -20 40
-37 76 -37 80 0 15 -50 118 -60 124 -6 3 -10 14 -10 24 0 9 -16 48 -35 87 -19
38 -35 73 -35 78 0 4 -10 30 -22 57 -21 44 -26 49 -55 49 -27 0 -31 -3 -26
-17 7 -17 6 -17 -11 0 -10 9 -32 17 -52 17 -39 0 -44 -7 -12 -19 12 -4 17 -10
11 -14 -6 -4 -22 2 -36 13 -14 11 -28 17 -31 12z"/>
<path d="M11842 11958 c-7 -7 -12 -19 -12 -27 0 -11 -3 -12 -8 -4 -5 8 -13 6
-30 -7 -12 -10 -22 -21 -22 -25 0 -14 -31 -36 -41 -29 -7 4 -9 3 -6 -3 4 -6
-4 -20 -17 -32 -18 -17 -26 -19 -31 -10 -6 8 -4 10 5 4 8 -5 11 -4 6 3 -4 6
-14 8 -23 5 -11 -4 -13 -8 -5 -11 16 -5 15 -23 0 -21 -7 1 -20 1 -28 0 -12 -1
-12 -3 -2 -9 7 -5 10 -16 6 -26 -5 -12 -10 -14 -19 -6 -11 9 -12 6 -8 -10 3
-12 1 -25 -6 -29 -7 -5 -4 -14 10 -30 19 -20 20 -27 10 -54 -9 -28 -10 -28 -6
-4 3 15 2 27 -3 27 -12 0 -12 -30 -1 -60 7 -19 17 -25 44 -27 33 -2 35 0 29
25 -4 16 -3 23 2 19 5 -5 9 -12 10 -15 0 -4 3 -14 7 -22 3 -8 7 -28 10 -43 4
-28 4 -29 -32 -23 -32 6 -34 5 -18 -8 14 -11 25 -12 55 -3 23 7 30 13 19 15
-9 2 -17 12 -17 22 0 15 7 18 35 16 19 -2 35 0 35 3 0 14 48 10 60 -4 7 -8 17
-15 23 -15 6 0 1 7 -11 16 -21 14 -21 17 -6 47 13 29 13 30 -1 13 -12 -16 -18
-17 -27 -8 -10 10 -10 15 2 22 23 15 38 12 49 -9 8 -14 7 -20 -4 -25 -29 -11
-11 -30 37 -40 3 0 10 -4 14 -8 11 -12 54 -9 54 3 0 6 7 3 16 -5 21 -22 27
-20 21 5 -5 20 -5 20 14 3 10 -9 19 -12 19 -7 0 6 12 11 26 11 21 0 25 -4 22
-23 -4 -20 -1 -22 31 -20 49 2 83 14 75 26 -7 11 13 39 28 39 6 0 8 -6 5 -13
-3 -8 1 -14 8 -14 10 0 11 5 4 18 -12 23 -29 34 -29 19 0 -6 -5 -8 -10 -5 -6
4 -8 10 -5 15 3 4 -1 11 -7 14 -7 3 -2 3 12 0 22 -4 20 -1 -15 30 -22 20 -37
36 -32 36 19 0 -30 66 -112 151 -60 62 -92 89 -101 84 -8 -5 -11 -4 -6 3 8 13
-45 52 -71 52 -10 0 -24 -5 -31 -12z"/>
<path d="M10200 11612 c-33 -35 -47 -57 -29 -47 11 6 11 5 3 -4 -13 -14 -6
-61 8 -61 6 0 8 7 4 15 -7 20 1 19 26 -5 14 -13 17 -20 8 -20 -7 0 -11 -3 -8
-6 3 -3 16 1 27 8 18 11 23 11 30 0 4 -7 15 -10 24 -6 10 4 17 1 17 -6 0 -10
3 -10 14 -1 10 8 21 9 33 3 32 -17 62 -7 88 28 14 19 22 37 18 41 -7 7 -235
91 -237 88 -1 -1 -12 -13 -26 -27z"/>
<path d="M13290 11620 c0 -11 5 -20 11 -20 6 0 9 -9 6 -20 -7 -27 2 -25 13 3
7 19 8 18 7 -10 -1 -18 -6 -33 -11 -33 -4 0 -5 -11 -2 -25 4 -14 2 -25 -3 -25
-5 0 -10 -21 -9 -47 0 -86 -7 -132 -22 -150 -8 -10 -17 -27 -18 -38 -2 -11 -9
-23 -14 -26 -6 -4 -8 -16 -5 -28 6 -24 -4 -26 -36 -10 -21 11 -21 11 1 -11 13
-12 21 -28 18 -36 -3 -8 -1 -14 5 -14 6 0 9 -8 8 -17 -2 -10 5 -33 15 -52 10
-18 16 -41 13 -51 -3 -12 0 -17 8 -14 7 3 15 -2 19 -11 3 -9 10 -14 15 -10 6
3 9 -3 8 -14 -1 -24 31 -97 97 -218 47 -85 76 -115 76 -79 0 20 32 29 62 17
22 -8 24 -7 22 23 -1 46 -36 200 -46 207 -13 8 -17 58 -6 65 9 6 2 58 -10 79
-8 12 -17 90 -24 193 -1 6 -3 12 -4 12 -8 0 -34 -61 -34 -80 0 -11 -5 -19 -11
-17 -6 1 -14 -4 -17 -12 -3 -9 0 -11 8 -6 23 14 -7 -81 -35 -108 -15 -15 -15
-17 -1 -17 9 0 16 5 16 10 0 6 5 10 10 10 6 0 5 -8 -2 -20 -15 -24 -56 -23
-71 1 -7 11 -5 26 7 49 9 18 16 42 16 52 0 11 5 28 11 40 31 59 7 328 -39 431
-21 48 -52 64 -52 27z"/>
<path d="M12248 11501 c-29 -12 -36 -21 -33 -36 3 -11 14 -110 25 -220 11
-110 27 -256 35 -325 9 -69 18 -154 20 -190 3 -36 8 -87 11 -115 3 -27 7 -75
10 -105 2 -30 6 -82 8 -115 3 -33 8 -114 10 -180 3 -66 8 -174 11 -240 3 -66
8 -222 11 -346 6 -271 6 -264 31 -265 11 -1 25 -4 32 -8 6 -4 11 -3 11 2 0 11
-30 38 -39 35 -3 -1 -5 7 -4 18 2 13 -1 18 -9 13 -8 -5 -9 -2 -5 10 4 10 7 22
7 27 0 6 5 7 12 3 8 -5 9 -2 5 10 -4 9 -3 15 1 12 4 -2 14 -1 22 5 13 7 12 9
-1 9 -24 0 -33 31 -12 36 14 4 18 16 18 50 0 24 -2 39 -3 34 -2 -6 -8 -8 -13
-4 -5 3 -4 14 3 27 14 26 20 109 7 101 -5 -3 -7 -10 -4 -15 4 -5 2 -9 -4 -9
-5 0 -9 15 -9 33 1 17 3 26 5 19 3 -6 9 -10 14 -6 14 8 11 40 -7 55 -13 11
-13 14 -1 21 15 8 15 43 -1 243 -5 63 -11 89 -20 88 -15 -4 -16 14 0 19 8 3 8
45 -1 174 -7 93 -15 171 -17 173 -2 3 -10 -1 -16 -7 -7 -7 -16 -12 -21 -12 -5
0 1 8 13 18 24 19 26 51 14 197 -6 74 -5 525 1 560 3 17 8 38 11 48 5 16 -39
105 -75 152 -15 20 -18 20 -53 6z"/>
<path d="M11530 11278 c-14 -5 -29 -16 -33 -24 -7 -11 -12 -12 -22 -4 -9 8
-15 8 -20 0 -3 -5 -19 -10 -36 -10 -36 0 -36 -6 -1 -43 15 -17 21 -26 13 -22
-9 5 -12 4 -7 -3 4 -7 15 -12 24 -13 14 0 13 -2 -3 -9 -19 -8 -19 -9 2 -9 12
-1 28 -8 37 -16 8 -8 19 -15 25 -15 6 0 11 -5 11 -11 0 -5 -5 -7 -11 -3 -7 4
-10 1 -7 -7 3 -8 11 -13 17 -11 6 1 10 -1 9 -5 0 -5 2 -16 7 -26 4 -11 1 -27
-11 -45 -14 -21 -14 -24 -2 -14 20 16 33 0 19 -25 -5 -10 -11 -22 -13 -28 -1
-5 -5 -9 -8 -8 -3 1 -7 -7 -7 -18 -1 -10 2 -19 8 -19 5 0 8 6 7 13 -2 7 6 11
20 10 16 -2 21 1 16 9 -5 8 -2 9 9 5 10 -3 17 -4 17 -1 0 2 -10 9 -22 14 l-23
9 23 0 c17 1 22 7 22 27 0 14 -5 34 -10 45 -6 10 -7 19 -2 19 10 0 -3 125 -17
162 -5 15 -7 28 -3 30 4 2 5 15 2 29 -4 24 -8 25 -30 17z"/>
<path d="M10675 10988 c2 -18 4 -37 4 -41 1 -5 6 -5 11 -2 6 3 10 0 10 -7 0
-26 18 -43 32 -30 11 8 17 7 26 -8 10 -16 8 -21 -8 -33 -19 -14 -19 -14 5 -25
24 -11 27 -16 29 -51 1 -19 26 -27 26 -8 0 15 20 27 46 27 8 0 14 -4 14 -10 0
-5 -7 -10 -15 -10 -9 0 -12 -6 -8 -15 3 -9 8 -13 11 -11 3 3 11 1 17 -4 9 -8
12 0 12 30 0 35 -6 46 -53 90 -33 32 -59 48 -67 44 -6 -4 -9 -4 -5 1 10 11
-11 37 -23 29 -5 -3 -8 -1 -7 4 2 5 -11 21 -29 36 l-31 26 3 -32z"/>
<path d="M13515 10631 c-11 -5 -23 -7 -27 -5 -13 8 6 -42 40 -101 113 -200
143 -264 132 -284 -7 -14 -7 -22 0 -26 6 -4 10 -3 9 2 -1 4 -1 15 0 23 1 12 5
11 16 -4 8 -11 15 -15 15 -9 0 7 -4 14 -9 18 -6 3 -9 14 -8 24 0 10 -4 36 -11
57 -6 22 -26 99 -44 173 -33 134 -34 135 -63 137 -17 2 -39 -1 -50 -5z"/>
<path d="M11452 10240 c-7 -12 -17 -18 -22 -15 -6 3 -10 2 -10 -4 0 -5 9 -13
21 -16 18 -6 19 -8 4 -19 -15 -11 -15 -12 2 -13 43 -3 63 -8 63 -15 0 -4 5 -8
11 -8 5 0 7 6 3 13 -4 6 2 4 13 -6 11 -9 23 -14 27 -10 4 4 4 -1 0 -11 -5 -12
-9 -14 -14 -6 -5 8 -9 6 -14 -5 -4 -11 2 -26 19 -43 14 -13 25 -20 25 -13 0 6
4 11 10 11 5 0 7 -8 4 -17 -5 -17 -5 -17 9 0 20 24 30 22 17 -4 -7 -11 -9 -23
-6 -27 3 -3 6 0 6 6 0 6 11 9 25 6 21 -4 25 -1 25 20 0 37 -17 76 -37 83 -25
9 -82 70 -74 79 3 4 0 4 -7 0 -7 -5 -21 2 -33 16 -14 16 -22 19 -25 11 -3 -7
-10 -13 -15 -13 -6 0 -7 5 -4 10 3 6 2 10 -2 10 -5 0 -14 -9 -21 -20z"/>
</g>
</svg>
