<?xml version="1.0" standalone="no"?>
<!DOCTYPE svg PUBLIC "-//W3C//DTD SVG 20010904//EN"
 "http://www.w3.org/TR/2001/REC-SVG-20010904/DTD/svg10.dtd">
<svg version="1.0" xmlns="http://www.w3.org/2000/svg"
 width="193.500000pt" height="142.7500000pt" viewBox="0 0 774.000000 571.000000"
 preserveAspectRatio="xMidYMid meet">

<g transform="translate(0.000000,571.000000) scale(0.100000,-0.100000)"
fill="#ffffff" stroke="none">
<path d="M2120 5514 c-129 -25 -248 -90 -345 -189 -136 -138 -194 -278 -202
-485 -6 -159 10 -242 73 -369 38 -76 62 -110 128 -176 128 -129 243 -182 416
-192 195 -10 341 46 480 186 147 147 210 303 210 515 0 135 -19 227 -65 324
-82 172 -220 301 -387 359 -56 20 -97 26 -178 29 -58 1 -116 0 -130 -2z m273
-262 c80 -40 163 -126 206 -214 119 -244 22 -557 -208 -671 -61 -30 -73 -32
-166 -32 -93 0 -105 2 -167 33 -150 73 -258 255 -258 433 0 217 131 416 313
475 26 9 74 13 128 11 74 -3 96 -8 152 -35z"/>
<path d="M3522 5505 c-111 -24 -206 -78 -297 -169 -90 -89 -141 -168 -180
-278 -122 -353 32 -749 351 -900 193 -91 441 -72 617 48 181 124 293 326 305
551 12 241 -60 429 -226 590 -144 141 -366 202 -570 158z m305 -250 c74 -36
169 -133 206 -208 99 -204 62 -444 -94 -599 -75 -76 -145 -108 -248 -115 -129
-9 -224 28 -315 124 -89 93 -136 212 -136 348 0 143 47 266 138 359 94 97 170
128 304 122 71 -3 99 -9 145 -31z"/>
<path d="M1367 5494 c-4 -4 -188 -10 -409 -13 l-403 -6 5 -220 c3 -121 5 -328
5 -460 0 -132 -2 -334 -5 -450 l-5 -210 130 0 130 0 -4 282 -4 282 29 11 c18
7 123 10 304 8 l275 -3 0 110 0 110 -90 0 c-49 0 -183 -4 -297 -8 -203 -8
-206 -8 -213 13 -12 37 -8 321 5 334 8 8 83 10 263 7 139 -3 284 -5 322 -5
l70 -1 -1 40 c-3 119 -8 158 -21 171 -15 14 -74 19 -86 8z"/>
<path d="M4499 5488 c-1 -2 -2 -307 -3 -679 l-2 -675 356 1 c334 2 358 3 412
23 169 62 304 212 374 417 25 72 28 94 28 225 1 123 -3 157 -22 225 -66 228
-210 376 -417 429 -107 27 -225 36 -477 36 -137 0 -249 -1 -249 -2z m683 -235
c118 -56 206 -167 238 -301 17 -73 15 -216 -5 -293 -34 -132 -123 -253 -221
-298 -97 -46 -402 -53 -444 -11 -18 18 -19 45 -19 460 -1 434 -1 440 20 461
20 20 29 21 192 17 169 -3 173 -4 239 -35z"/>
<path d="M5832 5472 c-3 -8 1 -159 8 -334 10 -260 10 -381 0 -648 -7 -180 -10
-335 -7 -343 5 -13 27 -16 131 -16 138 0 130 -4 126 64 0 17 -2 313 -3 660
l-2 629 -124 1 c-99 1 -124 -1 -129 -13z"/>
<path d="M6301 5475 c-4 -5 -4 -71 1 -145 13 -210 13 -723 0 -957 -6 -117 -9
-220 -5 -229 6 -15 30 -16 267 -9 170 4 320 3 430 -5 105 -7 172 -8 178 -2 8
8 20 66 35 181 l6 44 -64 -6 c-268 -27 -526 -29 -571 -6 -28 15 -38 75 -38
221 0 115 3 139 17 154 15 15 44 16 299 12 l282 -4 6 30 c3 17 8 65 12 108 l6
76 -296 -5 c-231 -5 -299 -3 -311 7 -12 10 -15 37 -15 140 0 171 4 189 49 207
31 13 66 14 261 4 124 -6 249 -11 279 -11 l54 0 -6 76 c-4 42 -13 88 -19 102
l-13 26 -418 1 c-268 0 -421 -4 -426 -10z"/>
<path d="M3406 3852 c-2336 -1 -3092 -5 -3103 -14 -12 -9 -13 -48 -10 -212 2
-111 6 -217 9 -236 3 -19 9 -71 13 -115 4 -44 15 -120 25 -170 11 -49 21 -101
24 -115 20 -105 27 -133 36 -150 5 -10 10 -28 10 -39 0 -24 115 -378 128 -395
5 -6 26 -53 46 -105 21 -51 49 -114 62 -139 13 -25 24 -51 24 -57 0 -7 7 -18
15 -25 8 -7 15 -20 15 -30 0 -9 8 -24 18 -33 10 -10 29 -41 43 -69 13 -29 32
-61 42 -70 9 -10 17 -25 17 -33 0 -8 9 -23 21 -34 11 -10 28 -32 37 -48 43
-76 60 -100 100 -143 23 -26 42 -53 42 -61 0 -8 29 -44 65 -79 36 -35 65 -71
65 -79 0 -18 359 -381 378 -381 7 0 46 -31 87 -70 41 -38 80 -70 88 -70 7 0
28 -16 47 -35 19 -19 41 -35 50 -35 9 0 29 -14 45 -30 16 -17 34 -30 40 -30 7
0 23 -9 36 -21 13 -12 40 -30 59 -40 19 -11 53 -30 75 -43 22 -13 90 -49 150
-81 61 -31 117 -60 125 -65 8 -5 38 -18 65 -30 71 -30 117 -51 137 -61 10 -5
24 -9 31 -9 7 0 28 -8 47 -17 67 -34 316 -108 465 -138 44 -9 91 -19 105 -22
58 -14 268 -42 385 -53 118 -11 476 -10 590 0 118 12 281 35 377 55 43 8 111
21 150 29 40 7 96 20 123 29 28 9 97 30 155 48 58 17 116 38 130 45 14 7 52
22 85 34 33 12 64 25 70 30 5 4 21 11 35 15 24 7 150 67 180 86 8 5 35 18 60
30 25 11 63 31 85 44 22 13 54 31 71 39 17 8 36 22 44 30 7 9 18 16 26 16 7 0
29 13 47 30 19 16 39 30 45 30 5 0 24 14 42 30 18 17 38 30 46 30 8 0 30 16
49 35 18 20 49 42 67 49 18 8 55 37 81 65 27 28 54 51 61 51 17 0 369 355 379
382 4 12 37 52 72 89 36 37 65 73 65 81 0 8 18 32 40 53 22 21 40 45 40 51 0
7 14 28 30 46 17 18 30 38 30 45 0 7 13 27 28 45 15 18 33 44 40 58 7 14 30
57 52 95 22 39 67 126 101 195 33 69 64 133 69 142 36 65 159 423 186 538 79
339 102 513 103 812 1 139 -2 189 -11 195 -15 9 119 9 -4002 5z m3234 -247
c18 -6 20 -15 20 -83 0 -65 -7 -137 -25 -282 -2 -14 -11 -54 -20 -90 -8 -36
-20 -85 -25 -110 -6 -25 -17 -62 -25 -83 -8 -20 -15 -49 -15 -63 0 -14 -11
-47 -24 -74 -13 -26 -34 -80 -46 -121 -13 -41 -27 -79 -31 -85 -5 -5 -40 -73
-78 -150 -39 -76 -82 -157 -96 -179 -14 -22 -32 -54 -40 -72 -8 -18 -26 -43
-40 -57 -14 -14 -25 -31 -25 -39 0 -7 -16 -29 -36 -48 -20 -18 -42 -47 -49
-63 -13 -31 -481 -506 -498 -506 -6 0 -32 -20 -58 -45 -26 -25 -54 -45 -62
-45 -8 0 -22 -9 -33 -21 -10 -11 -32 -27 -49 -35 -46 -23 -93 -50 -109 -63
-22 -18 -349 -181 -364 -181 -7 0 -32 -9 -55 -21 -57 -28 -177 -69 -203 -69
-12 0 -38 -7 -59 -15 -34 -15 -62 -22 -180 -45 -27 -5 -63 -12 -80 -16 -16 -4
-75 -11 -130 -16 -55 -5 -122 -14 -150 -19 -47 -10 -374 -6 -470 5 -231 27
-363 49 -394 65 -11 6 -28 11 -39 11 -21 0 -336 102 -392 127 -72 32 -276 135
-315 158 -73 44 -116 70 -145 86 -16 9 -45 30 -65 47 -20 18 -41 32 -48 32 -7
0 -35 23 -62 50 -27 28 -56 50 -65 50 -18 0 -410 389 -410 408 0 7 -20 35 -45
61 -25 26 -45 53 -45 60 0 6 -15 28 -33 48 -18 21 -38 49 -45 63 -7 14 -26 45
-42 70 -16 25 -35 57 -41 73 -6 15 -15 27 -20 27 -5 0 -14 11 -18 23 -11 27
-107 232 -122 261 -17 30 -129 377 -129 398 0 11 -5 28 -11 39 -29 56 -80 445
-65 504 l6 25 1788 2 c983 2 2238 4 2789 6 551 2 1011 1 1023 -3z m514 -95 c0
-52 -3 -115 -6 -140 -3 -25 -8 -72 -12 -105 -9 -77 -42 -252 -62 -330 -26
-101 -134 -430 -154 -471 -11 -21 -20 -46 -20 -55 0 -9 -6 -22 -14 -28 -8 -7
-17 -24 -21 -39 -9 -38 -84 -189 -101 -203 -8 -6 -14 -19 -14 -29 0 -10 -7
-23 -15 -30 -8 -7 -15 -18 -15 -25 0 -6 -9 -22 -20 -35 -11 -13 -20 -28 -20
-34 0 -6 -13 -26 -30 -44 -16 -18 -30 -39 -30 -46 0 -7 -13 -28 -30 -46 -16
-18 -30 -39 -30 -46 0 -6 -13 -25 -29 -40 -17 -16 -33 -39 -38 -51 -4 -11 -36
-51 -70 -87 -35 -36 -63 -72 -63 -80 0 -17 -286 -301 -331 -328 -19 -11 -59
-47 -90 -79 -31 -33 -63 -59 -71 -59 -8 0 -25 -12 -39 -26 -13 -14 -40 -34
-59 -44 -19 -10 -44 -27 -54 -39 -11 -12 -27 -21 -36 -21 -9 0 -29 -13 -45
-30 -16 -16 -35 -30 -44 -30 -8 0 -22 -7 -32 -16 -23 -20 -255 -142 -364 -190
-16 -7 -55 -24 -85 -37 -107 -48 -414 -141 -545 -166 -27 -5 -97 -18 -155 -30
-295 -57 -845 -56 -1125 3 -38 8 -104 21 -145 29 -41 8 -97 20 -125 27 -89 23
-359 113 -395 132 -19 10 -39 18 -44 18 -5 0 -27 9 -50 19 -156 73 -222 105
-226 111 -3 4 -35 22 -72 40 -38 18 -68 37 -68 41 0 5 -7 9 -15 9 -8 0 -29 13
-47 29 -18 15 -42 31 -53 35 -11 3 -32 17 -47 31 -15 14 -32 25 -39 25 -7 0
-34 20 -60 45 -26 25 -54 45 -60 45 -7 0 -40 27 -75 60 -34 33 -68 60 -76 60
-17 0 -328 311 -328 328 0 8 -27 42 -60 76 -33 35 -60 68 -60 74 0 7 -16 29
-36 49 -19 21 -44 54 -54 73 -10 19 -27 44 -39 54 -12 11 -21 24 -21 31 0 7
-9 23 -21 36 -11 13 -28 38 -36 54 -9 17 -19 32 -23 35 -4 3 -19 30 -34 61
-15 32 -33 62 -41 69 -8 7 -15 20 -15 30 0 10 -7 23 -15 30 -8 7 -15 20 -15
30 0 10 -7 23 -15 30 -8 7 -15 19 -15 28 0 9 -9 34 -19 56 -123 257 -242 679
-272 961 -17 154 -21 235 -15 261 6 23 9 24 106 24 99 0 100 0 113 -27 8 -16
15 -62 16 -103 1 -41 7 -106 13 -145 5 -38 11 -79 12 -90 9 -66 18 -116 31
-160 7 -27 21 -79 30 -115 26 -105 96 -321 121 -376 13 -28 24 -57 24 -64 0
-7 6 -21 13 -29 7 -9 24 -44 38 -79 13 -35 31 -71 41 -81 9 -10 28 -42 43 -72
39 -80 61 -118 79 -138 9 -10 16 -23 16 -29 0 -6 14 -27 30 -45 17 -19 30 -39
30 -45 0 -6 18 -32 40 -57 22 -25 40 -52 40 -58 0 -7 23 -35 50 -62 28 -27 50
-56 50 -65 0 -18 370 -390 388 -390 8 0 42 -27 76 -60 35 -33 69 -60 77 -60 9
0 28 -13 44 -30 16 -17 35 -30 43 -30 8 0 30 -13 49 -30 18 -17 40 -30 47 -30
7 0 21 -9 31 -20 10 -11 46 -33 80 -49 33 -16 67 -36 74 -45 7 -9 22 -16 32
-16 10 0 20 -4 23 -9 7 -11 83 -51 98 -51 6 0 29 -9 52 -19 109 -52 160 -72
273 -109 334 -111 607 -154 968 -154 210 0 405 12 480 32 40 10 84 19 220 45
39 7 102 23 140 35 39 11 102 30 140 42 39 11 79 26 90 32 11 7 38 19 60 26
82 25 417 190 452 222 11 10 25 18 31 18 6 0 26 13 44 30 18 17 38 30 46 30 7
0 26 13 42 30 16 16 35 30 43 30 7 0 31 18 52 40 21 22 46 40 53 40 8 0 58 43
111 95 54 52 104 95 111 95 19 0 120 100 120 119 0 7 43 57 95 110 52 54 95
103 95 110 0 6 20 34 45 60 25 26 45 53 45 59 0 6 14 27 30 45 17 19 30 41 30
49 0 8 9 23 20 33 11 10 20 24 20 31 0 7 12 27 27 44 29 35 165 300 184 359 6
20 16 42 22 49 14 18 114 323 138 422 11 47 24 103 30 125 5 22 14 74 20 115
6 41 14 100 19 130 5 30 9 91 9 134 1 113 6 117 140 114 l106 -3 -1 -95z"/>
<path d="M5815 3000 c-11 -5 -43 -9 -72 -9 -28 -1 -55 -6 -58 -11 -9 -14 27
-90 54 -114 12 -11 21 -25 21 -33 0 -7 19 -34 41 -58 23 -25 49 -60 58 -77 25
-51 71 -70 167 -66 71 3 85 6 118 32 46 35 66 79 66 146 0 68 -18 107 -73 158
l-47 42 -127 -1 c-71 0 -137 -4 -148 -9z"/>
<path d="M1645 2978 c-16 -6 -51 -31 -77 -56 l-48 -46 0 -68 c0 -80 15 -121
59 -162 59 -56 139 -70 206 -36 42 21 295 267 295 286 0 16 -18 28 -65 43
-121 39 -315 59 -370 39z"/>
<path d="M5285 2311 c-7 -12 2 -80 20 -153 47 -183 45 -180 109 -245 58 -60
62 -63 110 -63 73 0 120 18 165 64 53 54 70 116 52 184 -21 78 -54 102 -221
161 -84 29 -198 61 -218 61 -6 0 -13 -4 -17 -9z"/>
<path d="M2355 2290 c-290 -42 -375 -97 -375 -241 0 -71 53 -169 90 -169 10 0
23 -7 30 -15 18 -22 98 -19 144 5 46 23 86 59 86 76 0 7 11 26 25 42 14 17 25
36 25 44 0 7 9 31 20 52 11 22 27 62 36 90 9 28 24 61 32 73 31 49 3 60 -113
43z"/>
<path d="M4690 1868 c-16 -37 -32 -165 -37 -295 l-4 -122 37 -41 c47 -52 90
-70 166 -70 58 0 61 1 116 54 42 40 61 67 71 101 22 74 4 113 -103 223 -50 51
-100 95 -111 98 -11 4 -37 22 -58 40 -43 40 -64 43 -77 12z"/>
<path d="M3025 1840 c-10 -11 -26 -20 -35 -20 -10 0 -23 -7 -30 -15 -7 -8 -19
-15 -27 -15 -9 0 -31 -13 -50 -30 -18 -16 -39 -30 -46 -30 -19 0 -114 -101
-126 -133 -15 -40 -14 -77 6 -136 25 -78 78 -121 167 -135 44 -7 112 17 150
52 51 48 56 74 56 287 l0 195 -23 0 c-13 0 -32 -9 -42 -20z"/>
<path d="M3835 1659 c-19 -17 -37 -40 -41 -52 -3 -12 -19 -35 -34 -52 -16 -16
-34 -41 -39 -55 -6 -14 -15 -32 -20 -40 -57 -91 -65 -176 -25 -248 31 -56 44
-66 108 -88 42 -14 57 -15 103 -4 59 13 123 60 123 90 0 10 7 23 15 30 23 19
18 95 -10 180 -35 101 -111 256 -130 263 -9 4 -29 -6 -50 -24z"/>
</g>
</svg>
